<svg xmlns="http://www.w3.org/2000/svg" viewBox="0 0 77.58 43.33"><defs><style>.cls-1{fill:none;}</style></defs><g id="Calque_2" data-name="Calque 2"><g id="Calque_1-2" data-name="Calque 1"><rect class="cls-1" width="77.58" height="43.33"/><path d="M15.52,20.53A7.9,7.9,0,0,1,9.11,28a4.35,4.35,0,0,1-4.48-2.08,8.61,8.61,0,0,1,.9-10.36,5.81,5.81,0,0,1,4.52-2.29,4.86,4.86,0,0,1,4.7,3,3.58,3.58,0,0,1,.16.56C15.13,18.15,15.34,19.44,15.52,20.53Zm-9.09-.72-.1,0a18.13,18.13,0,0,0,.54,3.06c1,2.8,2,2.8,4.29,2a2.23,2.23,0,0,0,1.59-1.73,8.34,8.34,0,0,0-1.45-6.82,1.63,1.63,0,0,0-.66-.54,3.07,3.07,0,0,0-4.15,2.78C6.51,19,6.45,19.4,6.43,19.81Zm7.49,3.29a7.89,7.89,0,0,1-4.45,3.44A4.13,4.13,0,0,0,13.92,23.1ZM8.25,14.76A3.28,3.28,0,0,0,5.43,17Z"/><path d="M46.5,29.39A17.44,17.44,0,0,1,43,28.64a3.41,3.41,0,0,1-1.92-4.41A6.9,6.9,0,0,1,44.63,20c1.68-.86,4.7,0,5.89,2.32,1.65,3.22-.14,5.24-2.33,6.69A5.83,5.83,0,0,1,46.5,29.39Zm-.45-2.19a18.49,18.49,0,0,0,2.33-.69A1.38,1.38,0,0,0,49,24.16a5.93,5.93,0,0,0-2.81-2.1c-1.78-.62-2.76-.1-3.29,1.7a2.36,2.36,0,0,0,1.5,3A15.11,15.11,0,0,0,46.05,27.2Z"/><path d="M67.81,29.39a18.37,18.37,0,0,1-2.88-.84A3.34,3.34,0,0,1,63.1,24.6a6.63,6.63,0,0,1,3.71-4.69,4.39,4.39,0,0,1,4.39.68A5.37,5.37,0,0,1,73,25.79a4.79,4.79,0,0,1-5.16,3.4ZM68,27.23a20.83,20.83,0,0,0,2.48-.74,1.33,1.33,0,0,0,.58-2.25,5.5,5.5,0,0,0-3.55-2.35,2.2,2.2,0,0,0-1.58.22A3,3,0,0,0,64.86,25C65.08,26.32,66.27,27.1,68,27.23Z"/><path d="M32.69,27.78l-1.08.83a15.08,15.08,0,0,1-.25-1.69c0-2.23-.08-4.46,0-6.69a2,2,0,0,1,1.45-1.93l.07,1.41.93-.45V21l.83-.62a5.52,5.52,0,0,1,3.2-1.23c.89,0,1.31.2,1.46,1.08.24,1.33.34,2.69.48,4,.06.68,0,1.36.13,2a1.14,1.14,0,0,1-.49,1.25,10.66,10.66,0,0,0-1.07.94l-1-.53c.11-.4.26-.92.41-1.44A5.87,5.87,0,0,0,37.21,22c-.49-.94-1-1.08-2-.68-1.56.64-1.61.65-1.48,2.33a16.84,16.84,0,0,0,.52,3.07c.25,1,0,1.6-1.15,1.95Z"/><path d="M62.53,24.51a5.24,5.24,0,0,1-1,1.43c-1.19.95-2.45,1.81-3.72,2.64a2.36,2.36,0,0,1-2.37,0,8,8,0,0,1-3-2.45,2.83,2.83,0,0,1,0-3.58,8.14,8.14,0,0,1,7.24-4,1.14,1.14,0,0,0,1-.47,5.86,5.86,0,0,1,.89-.8c0,.5.08.81.09,1.13a10.59,10.59,0,0,1-.6,3.05,5.06,5.06,0,0,0,0,1.05l-1,1.2h-.27a4,4,0,0,1-.27-.94c0-.43.15-.87.1-1.29a1.33,1.33,0,0,0-.5-.86,2.05,2.05,0,0,0-2.62.09c-.72.62-1.46,1.2-2.12,1.87s-.58,1.05,0,1.7a5.07,5.07,0,0,1,.52.61,3.22,3.22,0,0,0,4,1.33,13.92,13.92,0,0,0,2.73-1.42,8.87,8.87,0,0,0,.74-.51Z"/><path d="M25.26,21.94l-1,1.46a7.14,7.14,0,0,0-2.08-1.13,6.13,6.13,0,0,0-2.3.42.69.69,0,0,0-.48.92c.14.61.27,1.23.41,1.84a23.79,23.79,0,0,1,.68,3.4c0,.4-.68.85-1.05,1.27-.24-.23-.49-.45-.72-.7a1.7,1.7,0,0,1-.19-.35.58.58,0,0,0-.17,0l-.9.52a6.56,6.56,0,0,1-.34-1c-.27-1.95-.5-3.89-.75-5.84A4,4,0,0,1,17.84,20a8.12,8.12,0,0,1,1.12.1c.14,0,.3-.11.48-.19l-.12,1.41.92-.77a3.3,3.3,0,0,1,4.1-.39A2.21,2.21,0,0,1,25.26,21.94Z"/><path d="M26.89,29c-.1-2.27-.21-4.64-.29-7a1.92,1.92,0,0,1,.87-1.61l.74-.53.78.24c.07,1.9.15,3.81.23,5.72a4.94,4.94,0,0,0,.16,1,1.61,1.61,0,0,1-.43,1.9A1.71,1.71,0,0,1,26.89,29Z"/><path d="M26.91,20c0-1.37-.2-2.52.44-3.57a2,2,0,0,1,.36-.54c.29-.27.49-.71,1.06-.46a.93.93,0,0,1,.47,1.28,19.34,19.34,0,0,1-1.48,2.62C27.61,19.53,27.3,19.66,26.91,20Z"/></g></g></svg>