<svg xmlns="http://www.w3.org/2000/svg" viewBox="0 0 119.81 43.33"><defs><style>.cls-1{fill:none;}</style></defs><g id="Calque_2" data-name="Calque 2"><g id="Calque_1-2" data-name="Calque 1"><rect class="cls-1" width="119.81" height="43.33"/><path d="M15.53,20.55A8.06,8.06,0,0,1,9,28.15,4.44,4.44,0,0,1,4.45,26,8.75,8.75,0,0,1,5.37,15.5,5.94,5.94,0,0,1,10,13.17a5,5,0,0,1,4.78,3.09,3.58,3.58,0,0,1,.16.56C15.13,18.13,15.34,19.44,15.53,20.55Zm-9.25-.74-.09,0a17.74,17.74,0,0,0,.54,3.11c1,2.85,2,2.84,4.36,2a2.25,2.25,0,0,0,1.62-1.76,8.49,8.49,0,0,0-1.48-6.93,1.62,1.62,0,0,0-.67-.55c-2-.77-4.35.84-4.22,2.83A8.79,8.79,0,0,1,6.28,19.81Zm7.61,3.34a8,8,0,0,1-4.52,3.5A4.19,4.19,0,0,0,13.89,23.15ZM8.14,14.68a3.31,3.31,0,0,0-2.87,2.24Z"/><path d="M25.42,22l-1,1.49a7.17,7.17,0,0,0-2.12-1.15,6.3,6.3,0,0,0-2.33.43.69.69,0,0,0-.49.93c.14.63.27,1.25.41,1.88A23,23,0,0,1,20.54,29c0,.42-.69.87-1.07,1.3-.24-.23-.49-.46-.72-.71a1.43,1.43,0,0,1-.2-.36.58.58,0,0,0-.17,0c-.31.17-.61.35-.91.53a5.59,5.59,0,0,1-.35-1c-.27-2-.51-4-.76-5.93A4.12,4.12,0,0,1,17.88,20a8.4,8.4,0,0,1,1.13.11c.16,0,.32-.12.5-.2l-.13,1.44c.39-.33.66-.57.94-.79a3.35,3.35,0,0,1,4.16-.39A2.22,2.22,0,0,1,25.42,22Z"/><path d="M27.07,29.11c-.09-2.31-.2-4.72-.29-7.13a2,2,0,0,1,.88-1.63l.76-.54.79.24c.08,1.93.15,3.88.24,5.82a4.42,4.42,0,0,0,.16,1,1.65,1.65,0,0,1-.44,1.94A1.75,1.75,0,0,1,27.07,29.11Z"/><path d="M27.09,20c0-1.39-.2-2.56.45-3.62a2.41,2.41,0,0,1,.37-.55c.29-.28.5-.72,1.08-.47a.94.94,0,0,1,.47,1.3A19.55,19.55,0,0,1,28,19.29C27.81,19.53,27.49,19.66,27.09,20Z"/><path d="M93.28,20l1-.85a15.27,15.27,0,0,1,.23,1.72c0,2.27.07,4.53,0,6.79a2,2,0,0,1-1.3,2l-.06-1.43-.84.46V27l-.74.63a4.78,4.78,0,0,1-2.88,1.25c-.8,0-1.18-.21-1.32-1.1-.21-1.35-.3-2.73-.42-4.1-.06-.68,0-1.38-.12-2.06a1.25,1.25,0,0,1,.43-1.27,8,8,0,0,0,1-1l.86.55c-.1.4-.23.93-.37,1.46a6.61,6.61,0,0,0,.5,4.51c.44,1,.89,1.1,1.77.69,1.4-.65,1.45-.66,1.34-2.37a20.45,20.45,0,0,0-.48-3.12,1.47,1.47,0,0,1,1-2Z"/><path d="M47.56,20l1-.85a15.27,15.27,0,0,1,.23,1.72c0,2.27.07,4.53,0,6.79a2,2,0,0,1-1.3,2l-.06-1.43-.84.46V27l-.74.63A4.78,4.78,0,0,1,43,28.85c-.8,0-1.18-.21-1.32-1.1-.21-1.35-.3-2.73-.43-4.1-.06-.68,0-1.38-.11-2.06a1.23,1.23,0,0,1,.43-1.27,8,8,0,0,0,1-1l.86.55c-.11.4-.24.93-.37,1.46a6.61,6.61,0,0,0,.5,4.51c.44,1,.88,1.1,1.77.69,1.4-.65,1.45-.66,1.33-2.37a19.26,19.26,0,0,0-.47-3.12,1.46,1.46,0,0,1,1-2Z"/><path d="M63.16,28.74l-1.09.84a13.39,13.39,0,0,1-.26-1.72c0-2.26-.08-4.53,0-6.79a2.06,2.06,0,0,1,1.48-2l.06,1.44,1-.46v1.73c.32-.25.58-.44.84-.63a5.7,5.7,0,0,1,3.26-1.26c.9,0,1.33.21,1.49,1.1.24,1.36.34,2.74.48,4.11.06.68,0,1.37.13,2.05A1.17,1.17,0,0,1,70,28.45a11.43,11.43,0,0,0-1.1,1l-1-.54c.11-.41.26-.94.41-1.46a6,6,0,0,0-.56-4.51c-.5-1-1-1.1-2-.69-1.58.65-1.63.65-1.5,2.36a17.39,17.39,0,0,0,.53,3.12c.26,1,0,1.63-1.17,2Z"/><path d="M116.23,25a6.17,6.17,0,0,1-.74.52A14.7,14.7,0,0,1,112.71,27a3.27,3.27,0,0,1-4-1.35h0c1.23-.09,2.47-.21,3.68-.4a5.6,5.6,0,0,0,1.56-.79h0l1-1.22a5.27,5.27,0,0,1,0-1.07,3.83,3.83,0,0,0-.25-2.11,1.38,1.38,0,0,1-.06-.26l-1.13-.59c-.26,0-.52,0-.78,0A8,8,0,0,0,107.15,22a11.08,11.08,0,0,0-1,1.24,3.77,3.77,0,0,0-.55,1.25,2.81,2.81,0,0,0,.6,2.39,8.1,8.1,0,0,0,3.07,2.49,2.39,2.39,0,0,0,2.41,0c1.3-.85,2.58-1.72,3.79-2.68a5.44,5.44,0,0,0,1-1.46Zm-8.08-1.74c.68-.68,1.43-1.27,2.16-1.89a2,2,0,0,1,2.07-.39,2.93,2.93,0,0,1,.59.29,1.28,1.28,0,0,1,.47.73,1,1,0,0,1,0,.14c0,.43-.12.88-.1,1.32a3.6,3.6,0,0,1,0,.57.51.51,0,0,1-.48.19,14.07,14.07,0,0,1-3.12-.11,4.4,4.4,0,0,1-1.69-.79Z"/><path d="M105.44,21.35l-1,1.49a7,7,0,0,0-2.12-1.15,6.1,6.1,0,0,0-2.33.43.69.69,0,0,0-.49.93c.14.62.27,1.25.41,1.87a23.15,23.15,0,0,1,.69,3.45c0,.41-.69.87-1.06,1.3-.25-.24-.5-.46-.73-.71a1.33,1.33,0,0,1-.2-.37,1.08,1.08,0,0,0-.17,0l-.91.52a5.25,5.25,0,0,1-.35-1c-.27-2-.51-4-.76-5.94a4.11,4.11,0,0,1,1.52-2.79,7,7,0,0,1,1.13.11c.16,0,.32-.12.5-.2l-.13,1.43c.4-.32.66-.56.94-.78a3.38,3.38,0,0,1,4.17-.4A2.22,2.22,0,0,1,105.44,21.35Z"/><path d="M60.46,21.35l-1.05,1.49a7,7,0,0,0-2.11-1.15,6.1,6.1,0,0,0-2.33.43.68.68,0,0,0-.49.93c.14.62.27,1.25.41,1.87a23.15,23.15,0,0,1,.69,3.45c0,.41-.69.87-1.07,1.3-.24-.24-.49-.46-.72-.71a1.33,1.33,0,0,1-.2-.37,1.08,1.08,0,0,0-.17,0l-.91.52a5.25,5.25,0,0,1-.35-1c-.27-2-.51-4-.76-5.94a4.11,4.11,0,0,1,1.52-2.79,7,7,0,0,1,1.13.11c.15,0,.32-.12.5-.2l-.13,1.43c.39-.32.66-.56.94-.78a3.36,3.36,0,0,1,4.16-.4A2.23,2.23,0,0,1,60.46,21.35Z"/><path d="M73.09,29.45c-.09-2.31-.2-4.72-.29-7.13a2,2,0,0,1,.88-1.63l.76-.55.79.25c.08,1.93.15,3.87.24,5.82a4.42,4.42,0,0,0,.16,1,1.64,1.64,0,0,1-.44,1.93A1.75,1.75,0,0,1,73.09,29.45Z"/><path d="M73.12,20.3c0-1.39-.21-2.56.44-3.63a2.65,2.65,0,0,1,.37-.55c.29-.27.5-.72,1.08-.46a.93.93,0,0,1,.47,1.3A18.87,18.87,0,0,1,74,19.62C73.83,19.86,73.51,20,73.12,20.3Z"/><path d="M39,19.55a4.57,4.57,0,0,0-.85.17,5,5,0,0,0-.83.34l-.09.05a3.24,3.24,0,0,0-.36.2l-.21.14a4.15,4.15,0,0,0-.34.24l-.21.17a2.56,2.56,0,0,0-.26.2l-.45.39,0,0-.51-.56q-.09-.33-.15-.66a1.09,1.09,0,0,1,0-.26,19.89,19.89,0,0,1,1.2-2.67,8.42,8.42,0,0,1,.56-.9c.1-.12.19-.24.29-.35h0a3.29,3.29,0,0,1,1-.86,3.16,3.16,0,0,1,1.19-.22l1.18-1.88a2.18,2.18,0,0,0-1.74-.9,3.18,3.18,0,0,0-2.77,1.66h0a4.4,4.4,0,0,0-1.09,1.64,32.8,32.8,0,0,0-1.39,3.41,9.43,9.43,0,0,0-.6,2.34l.06.71c.13,2,.32,4,.52,6.06a14,14,0,0,0,.39,1.69l1-.92.52.89a1.44,1.44,0,0,0,1-2.07,17.83,17.83,0,0,1-.78-3.06c-.23-1.51-.21-1.69.87-2.25l.45-.23c.81-.41,1.3-.39,1.77.16.39-.5,1.16-1.74,1.65-2.52A1.7,1.7,0,0,0,39,19.55Z"/><path d="M86,25.18a5.11,5.11,0,0,1-.63.52c-.54.36-1.07.78-1.62,1.1l-.09.06a3.81,3.81,0,0,1-.62.28c-1.32.45-1.25.19-2.07-1.35a3.16,3.16,0,0,1-.47-1.69h0s0,0,0,0V24h0a7.9,7.9,0,0,0-.38-1.3c0-.2-.1-.37-.13-.53l.42-.48h.13l.31,0,.33-.05.26,0,.41-.07.26,0,.39-.12.1,0h0a1,1,0,0,0,.62-.24l.06,0h0l-1-1-.53-.53c-.1.44-.45.7-1.11.92l0,0c-.5-.37-.47-.74-.29-1.91.06-.41.15-.82.24-1.23.15-.62.33-1.24.53-1.83a1.44,1.44,0,0,0-1-2.07l-.52.89L79.23,14l-.66-.6a14,14,0,0,0-.39,1.69c-.2,2-.39,4-.52,6.06v.08c0,.21,0,.42,0,.63a9.26,9.26,0,0,0,.59,2.34l.12.33.06.26c.12.57.23,1.14.35,1.71a1.8,1.8,0,0,1,.25.4h0c.23.34.48.69.76,1a8.14,8.14,0,0,0,1.74,1.62c.25.17.41.26.72,0s.61-.49.92-.73c.77-.63,1.53-1.26,2.26-1.95a5.46,5.46,0,0,0,.81-1.45Z"/></g></g></svg>