<svg xmlns="http://www.w3.org/2000/svg" viewBox="0 0 133.62 26.26"><defs><style>.cls-1{fill:#1d1d1b;}</style></defs><g id="Calque_2" data-name="Calque 2"><g id="Calque_1-2" data-name="Calque 1"><path class="cls-1" d="M19.05,11.31c0,5.61-4.77,11-10,11.66a6.8,6.8,0,0,1-7-3.24A13.42,13.42,0,0,1,3.48,3.57C5.42,1.46,7.61-.1,10.52,0s6.15,1.46,7.32,4.73a4.79,4.79,0,0,1,.26.87C18.44,7.61,18.77,9.61,19.05,11.31ZM4.88,10.19l-.15,0A27.76,27.76,0,0,0,5.56,15c1.53,4.36,3.14,4.36,6.69,3.12a3.49,3.49,0,0,0,2.48-2.71A13,13,0,0,0,12.47,4.78a2.55,2.55,0,0,0-1-.85C8.43,2.74,4.77,5.21,5,8.26A17.93,17.93,0,0,1,4.88,10.19Zm11.67,5.12c-1.84,2.59-3.91,4.58-6.93,5.37C13,20.94,15.67,18.9,16.55,15.31Zm-8.83-13c-2.09.23-4.07,1.81-4.4,3.44Z"/><path class="cls-1" d="M34.22,13.5l-1.59,2.28c-1.14-.65-2.13-1.59-3.24-1.76a9.47,9.47,0,0,0-3.59.66,1.06,1.06,0,0,0-.75,1.43c.22.95.42,1.91.63,2.87a33.71,33.71,0,0,1,1.06,5.29c0,.63-1,1.33-1.63,2-.37-.36-.76-.71-1.12-1.09a2.32,2.32,0,0,1-.3-.56,1.08,1.08,0,0,0-.26.05l-1.4.81a8.35,8.35,0,0,1-.53-1.55c-.42-3-.79-6.07-1.17-9.11a6.33,6.33,0,0,1,2.34-4.29,13.24,13.24,0,0,1,1.73.17c.24,0,.48-.18.76-.3-.06.68-.11,1.31-.19,2.2.6-.5,1-.87,1.44-1.21,2-1.58,4.08-2,6.38-.6A3.33,3.33,0,0,1,34.22,13.5Z"/><path class="cls-1" d="M36.77,24.45c-.15-3.55-.32-7.24-.45-10.94A3,3,0,0,1,37.67,11c.42-.32.85-.62,1.16-.84l1.21.37c.12,3,.23,5.95.37,8.93a6.51,6.51,0,0,0,.25,1.57A2.52,2.52,0,0,1,40,24,2.66,2.66,0,0,1,36.77,24.45Z"/><path class="cls-1" d="M36.8,10.42c0-2.14-.31-3.93.68-5.57A4.43,4.43,0,0,1,38.05,4c.45-.42.77-1.1,1.65-.71a1.44,1.44,0,0,1,.73,2,29,29,0,0,1-2.31,4.09C37.89,9.75,37.41,10,36.8,10.42Z"/><path class="cls-1" d="M128.39,20.87a4.28,4.28,0,0,1-1.66.33,2.93,2.93,0,0,1-1.4-.3,2.2,2.2,0,0,1-.87-.81,2,2,0,0,1-.3-1,1.76,1.76,0,0,1,.9-1.56,4.31,4.31,0,0,1,2.34-.57,9.33,9.33,0,0,1,1.47.13,8.14,8.14,0,0,1,1.41.39v1.42a1.08,1.08,0,0,1-.17.54,2.73,2.73,0,0,1-.45.61A3.58,3.58,0,0,1,128.39,20.87Zm-6.17.38a4,4,0,0,0,1.53,1.39,4.8,4.8,0,0,0,2.24.51,6,6,0,0,0,2.56-.58,5.37,5.37,0,0,0,2.09-1.63l.07.72a1.57,1.57,0,0,0,.51,1,1.79,1.79,0,0,0,1.27.41l.48,0a4.37,4.37,0,0,0,.65-.09V20.8a.72.72,0,0,1-.54-.22,1,1,0,0,1-.16-.64V15.31a4.77,4.77,0,0,0-1.45-3.73,5.68,5.68,0,0,0-4-1.32,8.59,8.59,0,0,0-2.65.41,10,10,0,0,0-2.51,1.25l.89,1.77a11.6,11.6,0,0,1,2-1,5.29,5.29,0,0,1,2-.37,3.24,3.24,0,0,1,2.28.73,2.62,2.62,0,0,1,.79,2v.79a6.5,6.5,0,0,0-1.55-.39,12.51,12.51,0,0,0-1.71-.12,7.47,7.47,0,0,0-2.79.49,4.48,4.48,0,0,0-1.88,1.38,3.31,3.31,0,0,0-.68,2.08A3.65,3.65,0,0,0,122.22,21.25Zm-1.54-11a1.14,1.14,0,0,0-.27,0H120a4.07,4.07,0,0,0-2.23.85,5.73,5.73,0,0,0-1.71,2.07V10.45h-2.44V22.91h2.64V15.23a3.77,3.77,0,0,1,1.69-1.9,5.52,5.52,0,0,1,2.72-.69Zm-18.81,3.67a3.82,3.82,0,0,1,1.35-1.27,3.85,3.85,0,0,1,3.65,0,4,4,0,0,1,1.37,1.27,3.81,3.81,0,0,1,.61,1.87h-7.58A3.7,3.7,0,0,1,101.87,13.93Zm5.61,8.8a6.34,6.34,0,0,0,2-1.15,4.82,4.82,0,0,0,1.23-1.65l-2.25-.65a2.76,2.76,0,0,1-1.29,1.4,4.06,4.06,0,0,1-2,.52,3.65,3.65,0,0,1-1.8-.46,3.83,3.83,0,0,1-2-3.18h10a3.47,3.47,0,0,0,0-.42,4.45,4.45,0,0,0,0-.53,6.41,6.41,0,0,0-.8-3.12,6.22,6.22,0,0,0-2.22-2.34,6.3,6.3,0,0,0-3.39-.89,6.49,6.49,0,0,0-3.43.89,6.27,6.27,0,0,0-2.28,2.35,6.43,6.43,0,0,0-.82,3.22A6.53,6.53,0,0,0,99,19.18a6.3,6.3,0,0,0,1.33,2.05,6.41,6.41,0,0,0,2,1.41,6.66,6.66,0,0,0,2.65.51A7,7,0,0,0,107.48,22.73ZM96.3,15.32a10,10,0,0,0-.18-1.93,5.28,5.28,0,0,0-.59-1.62,2.93,2.93,0,0,0-1.15-1.11,3.84,3.84,0,0,0-1.85-.4,5.06,5.06,0,0,0-2.72.73,5.89,5.89,0,0,0-2,2.1,3.42,3.42,0,0,0-1.11-2,3.54,3.54,0,0,0-2.46-.81,5.44,5.44,0,0,0-2.78.7,5.31,5.31,0,0,0-2,2V10.45H77.1V22.91h2.64v-7.4a4.45,4.45,0,0,1,1.35-2.1,3.17,3.17,0,0,1,2.06-.8,1.89,1.89,0,0,1,1.65.81A4.37,4.37,0,0,1,85.38,16v7H88V15.55a4.33,4.33,0,0,1,1.33-2.12,3.11,3.11,0,0,1,2.05-.82,1.92,1.92,0,0,1,1.68.81A4.37,4.37,0,0,1,93.66,16v7H96.3ZM69.37,20.87a4.28,4.28,0,0,1-1.66.33,3,3,0,0,1-1.4-.3,2.17,2.17,0,0,1-.86-.81,2,2,0,0,1-.3-1,1.76,1.76,0,0,1,.9-1.56,4.31,4.31,0,0,1,2.34-.57,9.2,9.2,0,0,1,1.46.13,8,8,0,0,1,1.42.39v1.42a1.19,1.19,0,0,1-.17.54,2.79,2.79,0,0,1-.46.61A3.5,3.5,0,0,1,69.37,20.87Zm-6.17.38a3.92,3.92,0,0,0,1.54,1.39,4.76,4.76,0,0,0,2.23.51,6.12,6.12,0,0,0,2.57-.58,5.44,5.44,0,0,0,2.09-1.63l.07.72a1.56,1.56,0,0,0,.5,1,1.79,1.79,0,0,0,1.27.41L74,23a4.2,4.2,0,0,0,.65-.09V20.8a.75.75,0,0,1-.54-.22,1,1,0,0,1-.15-.64V15.31a4.78,4.78,0,0,0-1.46-3.73,5.66,5.66,0,0,0-4-1.32,8.59,8.59,0,0,0-2.65.41,10,10,0,0,0-2.51,1.25l.89,1.77a12,12,0,0,1,2-1,5.33,5.33,0,0,1,2-.37,3.2,3.2,0,0,1,2.28.73,2.62,2.62,0,0,1,.8,2v.79a6.63,6.63,0,0,0-1.55-.39A12.76,12.76,0,0,0,68,15.32a7.46,7.46,0,0,0-2.78.49,4.52,4.52,0,0,0-1.89,1.38,3.37,3.37,0,0,0-.68,2.08A3.65,3.65,0,0,0,63.2,21.25ZM47,17.42a9.56,9.56,0,0,0,1.68,2.84,8.25,8.25,0,0,0,2.57,2,7.08,7.08,0,0,0,3.29.76,8.49,8.49,0,0,0,2.72-.46,8,8,0,0,0,2.5-1.34,5.33,5.33,0,0,0,1.64-2.16L59.17,17.8A4.12,4.12,0,0,1,58,19.42a5.38,5.38,0,0,1-1.64.9,5.56,5.56,0,0,1-1.71.28,4.77,4.77,0,0,1-2.2-.5,5.32,5.32,0,0,1-1.74-1.38,6.45,6.45,0,0,1-1.14-2,6.74,6.74,0,0,1-.41-2.36,7.08,7.08,0,0,1,.35-2.21,6.28,6.28,0,0,1,1-2,5.2,5.2,0,0,1,1.69-1.43,4.91,4.91,0,0,1,2.35-.54,6.13,6.13,0,0,1,1.67.24,4.25,4.25,0,0,1,1.58.84A4.6,4.6,0,0,1,59,10.88l2.11-1.41a6.68,6.68,0,0,0-2.5-2.68,7.45,7.45,0,0,0-4-1,7.82,7.82,0,0,0-6.09,2.7A8.81,8.81,0,0,0,47,11.18a9,9,0,0,0-.55,3.06A8.79,8.79,0,0,0,47,17.42Z"/></g></g></svg>