<svg xmlns="http://www.w3.org/2000/svg" viewBox="0 0 193.02 26.26"><defs><style>.cls-1{fill:#1d1d1b;}</style></defs><g id="Calque_2" data-name="Calque 2"><g id="Calque_1-2" data-name="Calque 1"><path class="cls-1" d="M19.05,11.31c0,5.61-4.77,11-10,11.66a6.8,6.8,0,0,1-7-3.24A13.42,13.42,0,0,1,3.48,3.57C5.42,1.46,7.61-.1,10.52,0s6.15,1.45,7.32,4.73a4.79,4.79,0,0,1,.26.87C18.44,7.61,18.77,9.61,19.05,11.31ZM4.88,10.19l-.15,0A27.93,27.93,0,0,0,5.56,15c1.53,4.36,3.14,4.36,6.69,3.11a3.46,3.46,0,0,0,2.48-2.7A13,13,0,0,0,12.47,4.77a2.61,2.61,0,0,0-1-.84C8.43,2.74,4.77,5.21,5,8.26A17.93,17.93,0,0,1,4.88,10.19Zm11.67,5.12c-1.84,2.59-3.91,4.58-6.93,5.37C13,20.94,15.67,18.9,16.55,15.31Zm-8.83-13c-2.09.23-4.07,1.81-4.4,3.44Z"/><path class="cls-1" d="M34.22,13.5l-1.59,2.28c-1.14-.65-2.13-1.59-3.24-1.76a9.47,9.47,0,0,0-3.59.66,1.06,1.06,0,0,0-.75,1.43c.22.95.42,1.91.63,2.87a33.71,33.71,0,0,1,1.06,5.29c0,.63-1,1.33-1.63,2-.37-.36-.76-.71-1.12-1.09a2.32,2.32,0,0,1-.3-.56,1.08,1.08,0,0,0-.26.05l-1.4.81a8.35,8.35,0,0,1-.53-1.55c-.42-3-.79-6.07-1.17-9.11a6.33,6.33,0,0,1,2.34-4.29,13.24,13.24,0,0,1,1.73.17c.24,0,.48-.18.76-.3-.06.68-.11,1.31-.19,2.2.6-.5,1-.87,1.44-1.21,2-1.58,4.08-2,6.38-.6A3.33,3.33,0,0,1,34.22,13.5Z"/><path class="cls-1" d="M36.77,24.45c-.15-3.55-.32-7.24-.45-10.94A3,3,0,0,1,37.67,11c.42-.32.85-.62,1.16-.84l1.21.37c.12,3,.23,5.95.37,8.93a6.51,6.51,0,0,0,.25,1.57A2.52,2.52,0,0,1,40,24,2.66,2.66,0,0,1,36.77,24.45Z"/><path class="cls-1" d="M36.8,10.42c0-2.14-.31-3.93.68-5.57A4.14,4.14,0,0,1,38.05,4c.45-.42.77-1.1,1.65-.71a1.44,1.44,0,0,1,.73,2,29,29,0,0,1-2.31,4.09C37.89,9.75,37.41,10,36.8,10.42Z"/><path class="cls-1" d="M183.42,13.93a3.82,3.82,0,0,1,1.35-1.27,3.85,3.85,0,0,1,3.65,0,4,4,0,0,1,1.37,1.27,3.81,3.81,0,0,1,.61,1.87h-7.58A3.7,3.7,0,0,1,183.42,13.93Zm5.61,8.8a6.34,6.34,0,0,0,2-1.15,4.82,4.82,0,0,0,1.23-1.65L190,19.28a2.76,2.76,0,0,1-1.29,1.4,4.06,4.06,0,0,1-2,.52,3.65,3.65,0,0,1-1.8-.46,3.83,3.83,0,0,1-2-3.18h10.05a3.47,3.47,0,0,0,.05-.42,4.45,4.45,0,0,0,0-.53,6.41,6.41,0,0,0-.8-3.12A6.22,6.22,0,0,0,190,11.15a6.3,6.3,0,0,0-3.39-.89,6.49,6.49,0,0,0-3.43.89,6.27,6.27,0,0,0-2.28,2.35,6.43,6.43,0,0,0-.82,3.22,6.53,6.53,0,0,0,.47,2.46,6.3,6.3,0,0,0,1.33,2.05,6.41,6.41,0,0,0,2.05,1.41,6.66,6.66,0,0,0,2.65.51A7,7,0,0,0,189,22.73Zm-9.84-12.47a1.14,1.14,0,0,0-.27,0h-.4a4.07,4.07,0,0,0-2.23.85,5.73,5.73,0,0,0-1.71,2.07V10.45h-2.44V22.91h2.64V15.23a3.77,3.77,0,0,1,1.69-1.9,5.52,5.52,0,0,1,2.72-.69Zm-20.78,11.6a3.53,3.53,0,0,0,3,1.29,6.4,6.4,0,0,0,3-.7,5.66,5.66,0,0,0,2.18-2.06l0,1.23a1.51,1.51,0,0,0,.55,1,1.84,1.84,0,0,0,1.2.39l.5,0a5.84,5.84,0,0,0,.68-.09V20.8a.81.81,0,0,1-.56-.22,1,1,0,0,1-.16-.64V10.45h-2.64v7.77a4.62,4.62,0,0,1-.95,1.45,3.89,3.89,0,0,1-1.3.91,3.5,3.5,0,0,1-1.45.31,2.08,2.08,0,0,1-1.79-.84,4.24,4.24,0,0,1-.61-2.51V10.45H157.4v7.62A6.07,6.07,0,0,0,158.41,21.86Zm-3.27-1.64c-.16.08-.4.18-.74.31a2.93,2.93,0,0,1-1.06.19,1.38,1.38,0,0,1-.92-.31,1.27,1.27,0,0,1-.42-.95v-7h2.74v-2H152V6.32h-2.64v4.13H147.7v2h1.66v7.82a2.9,2.9,0,0,0,.42,1.63,2.4,2.4,0,0,0,1.12.92,3.91,3.91,0,0,0,1.51.29,5.72,5.72,0,0,0,1.31-.15,7.74,7.74,0,0,0,1.14-.33q.49-.2.84-.36Zm-9.6-11.93V5.39H142.9v2.9Zm0,14.62V10.36H142.9V22.91Zm-5.71-7.59a11.9,11.9,0,0,0-.15-1.93,4.8,4.8,0,0,0-.58-1.62A3,3,0,0,0,138,10.66a3.82,3.82,0,0,0-1.86-.4,6.54,6.54,0,0,0-2.09.33,6.32,6.32,0,0,0-1.76.94A5.07,5.07,0,0,0,131,13V10.45h-2.4V22.91h2.64v-7.4a3.78,3.78,0,0,1,.86-1.49,4.49,4.49,0,0,1,1.36-1,3.38,3.38,0,0,1,1.52-.38,1.9,1.9,0,0,1,1.67.81,4.47,4.47,0,0,1,.56,2.54v7h2.64Zm-13.17-5.06a1.19,1.19,0,0,0-.28,0H126a4.1,4.1,0,0,0-2.24.85,5.71,5.71,0,0,0-1.7,2.07V10.45H119.6V22.91h2.64V15.23a3.81,3.81,0,0,1,1.69-1.9,5.56,5.56,0,0,1,2.73-.69Zm-20.79,11.6a3.57,3.57,0,0,0,3,1.29,6.35,6.35,0,0,0,3-.7A5.62,5.62,0,0,0,114,20.39l0,1.23a1.52,1.52,0,0,0,.56,1,1.84,1.84,0,0,0,1.2.39l.5,0a5.45,5.45,0,0,0,.67-.09V20.8a.78.78,0,0,1-.55-.22,1,1,0,0,1-.17-.64V10.45H113.6v7.77a4.45,4.45,0,0,1-.95,1.45,3.85,3.85,0,0,1-1.29.91,3.54,3.54,0,0,1-1.45.31,2.07,2.07,0,0,1-1.79-.84,4.24,4.24,0,0,1-.61-2.51V10.45h-2.64v7.62A6.08,6.08,0,0,0,105.87,21.86ZM94.76,22.91V15.56H102V13.33H94.76V8.24h8.67V5.87H92.07v17Zm-4.63,0L85,15.68l4.88-5.23H87l-5.8,6V5.39H78.59V22.91h2.64v-3.8l2.06-1.95,4,5.75Zm-19.27-2a4.28,4.28,0,0,1-1.66.33,2.93,2.93,0,0,1-1.4-.3,2.2,2.2,0,0,1-.87-.81,2,2,0,0,1-.3-1,1.76,1.76,0,0,1,.9-1.56,4.31,4.31,0,0,1,2.34-.57,9.33,9.33,0,0,1,1.47.13,7.9,7.9,0,0,1,1.41.39v1.42a1.16,1.16,0,0,1-.16.54,3.15,3.15,0,0,1-.46.61A3.5,3.5,0,0,1,70.86,20.87Zm-6.17.38a3.92,3.92,0,0,0,1.54,1.39,4.76,4.76,0,0,0,2.23.51A6.12,6.12,0,0,0,71,22.57a5.41,5.41,0,0,0,2.08-1.63l.08.72a1.51,1.51,0,0,0,.5,1A1.79,1.79,0,0,0,75,23l.48,0a4.37,4.37,0,0,0,.65-.09V20.8a.72.72,0,0,1-.54-.22,1,1,0,0,1-.16-.64V15.31a4.77,4.77,0,0,0-1.45-3.73,5.68,5.68,0,0,0-4-1.32,8.59,8.59,0,0,0-2.65.41,10,10,0,0,0-2.51,1.25l.89,1.77a12,12,0,0,1,2-1,5.29,5.29,0,0,1,2-.37A3.24,3.24,0,0,1,72,13a2.62,2.62,0,0,1,.79,2v.79a6.41,6.41,0,0,0-1.54-.39,12.76,12.76,0,0,0-1.72-.12,7.42,7.42,0,0,0-2.78.49,4.52,4.52,0,0,0-1.89,1.38,3.37,3.37,0,0,0-.68,2.08A3.65,3.65,0,0,0,64.69,21.25ZM49.51,12.13a6.59,6.59,0,0,1,1.07-2,5.31,5.31,0,0,1,1.7-1.42,4.92,4.92,0,0,1,2.31-.52,4.83,4.83,0,0,1,2.22.5,5.42,5.42,0,0,1,1.71,1.38,6,6,0,0,1,1.09,2,7.21,7.21,0,0,1,0,4.56,6.58,6.58,0,0,1-1.05,2,5.08,5.08,0,0,1-1.69,1.43,5.35,5.35,0,0,1-4.56,0,5.35,5.35,0,0,1-1.72-1.38,6.56,6.56,0,0,1-1.09-2,7.39,7.39,0,0,1-.38-2.33A7,7,0,0,1,49.51,12.13Zm8.3,10.2a8.08,8.08,0,0,0,2.61-1.91,8.83,8.83,0,0,0,1.74-9.15A9.51,9.51,0,0,0,60.5,8.48a8.11,8.11,0,0,0-2.57-2,7.81,7.81,0,0,0-6.57,0,8.26,8.26,0,0,0-2.61,1.92A8.92,8.92,0,0,0,47,11.14a8.51,8.51,0,0,0-.63,3.25A8.91,8.91,0,0,0,47,17.57a9,9,0,0,0,1.67,2.78,7.85,7.85,0,0,0,2.57,2,8,8,0,0,0,6.58,0Z"/></g></g></svg>