<svg xmlns="http://www.w3.org/2000/svg" viewBox="0 0 115.43 28.36"><defs><style>.cls-1{fill:#1d1d1b;}</style></defs><g id="Calque_2" data-name="Calque 2"><g id="Calque_1-2" data-name="Calque 1"><path class="cls-1" d="M19.05,11.31c0,5.61-4.77,11-10,11.66a6.8,6.8,0,0,1-7-3.24A13.42,13.42,0,0,1,3.48,3.57C5.42,1.46,7.61-.1,10.52,0s6.15,1.45,7.32,4.73a4.57,4.57,0,0,1,.26.87C18.44,7.6,18.77,9.61,19.05,11.31ZM4.88,10.19l-.15,0A27.93,27.93,0,0,0,5.56,15c1.53,4.36,3.14,4.36,6.69,3.11a3.46,3.46,0,0,0,2.48-2.7A13,13,0,0,0,12.47,4.77a2.53,2.53,0,0,0-1-.84C8.43,2.74,4.77,5.21,5,8.26A17.93,17.93,0,0,1,4.88,10.19Zm11.67,5.12c-1.84,2.59-3.91,4.58-6.93,5.37C13,20.94,15.67,18.9,16.55,15.31Zm-8.83-13c-2.09.23-4.07,1.81-4.4,3.44Z"/><path class="cls-1" d="M34.22,13.5l-1.59,2.28c-1.14-.65-2.13-1.59-3.24-1.76a9.47,9.47,0,0,0-3.59.66,1.06,1.06,0,0,0-.75,1.43c.22.95.42,1.91.63,2.87a33.71,33.71,0,0,1,1.06,5.29c0,.63-1,1.33-1.63,2-.37-.36-.76-.71-1.12-1.09a2.32,2.32,0,0,1-.3-.56,1.08,1.08,0,0,0-.26.05l-1.4.81a8.35,8.35,0,0,1-.53-1.55c-.42-3-.79-6.07-1.17-9.11a6.33,6.33,0,0,1,2.34-4.29,13.24,13.24,0,0,1,1.73.17c.24,0,.48-.18.76-.3-.06.68-.11,1.31-.19,2.2.6-.5,1-.87,1.44-1.21,2-1.58,4.08-2,6.38-.6A3.33,3.33,0,0,1,34.22,13.5Z"/><path class="cls-1" d="M36.77,24.45c-.15-3.55-.32-7.24-.45-10.94A3,3,0,0,1,37.67,11c.42-.32.85-.62,1.16-.84l1.21.37c.12,3,.23,5.95.37,8.93A6.35,6.35,0,0,0,40.66,21,2.53,2.53,0,0,1,40,24,2.66,2.66,0,0,1,36.77,24.45Z"/><path class="cls-1" d="M36.8,10.42c0-2.14-.31-3.93.68-5.57A4.14,4.14,0,0,1,38.05,4c.45-.42.77-1.1,1.65-.71a1.44,1.44,0,0,1,.73,2,29.53,29.53,0,0,1-2.31,4.09C37.89,9.75,37.41,10,36.8,10.42Z"/><path class="cls-1" d="M104.67,28.16a6,6,0,0,0,.7.15,4.36,4.36,0,0,0,2.35-.29A3.51,3.51,0,0,0,109,27.1a4.2,4.2,0,0,0,.77-1.28l5.69-15.37h-2.55l-3.41,9.81-3.84-9.81h-2.76L108,22.94c-.3.84-.56,1.48-.76,1.92a2.73,2.73,0,0,1-.62.92,1.09,1.09,0,0,1-.7.25,3.45,3.45,0,0,1-.57-.06l-.71-.11Zm-6.9-8.76a3.48,3.48,0,0,1-.84.78,4.34,4.34,0,0,1-1,.52,3.14,3.14,0,0,1-1.07.19,3.57,3.57,0,0,1-1.54-.32,3.7,3.7,0,0,1-1.25-.9,3.94,3.94,0,0,1-.83-1.32,4.46,4.46,0,0,1-.29-1.6,4.64,4.64,0,0,1,.27-1.58,4,4,0,0,1,.75-1.35,3.75,3.75,0,0,1,1.18-1,3.18,3.18,0,0,1,1.52-.35,3.25,3.25,0,0,1,1.45.35,4.75,4.75,0,0,1,1.32,1,3.57,3.57,0,0,1,.86,1.36v3.24A2.72,2.72,0,0,1,97.77,19.4Zm-9.14-.22a6.82,6.82,0,0,0,1.25,2.07,5.65,5.65,0,0,0,1.89,1.4,5.75,5.75,0,0,0,2.39.5,5.26,5.26,0,0,0,2.54-.66,5,5,0,0,0,2-1.86l0,.93a1.43,1.43,0,0,0,.54,1,2,2,0,0,0,1.26.43,7.8,7.8,0,0,0,1.16-.12V20.8a.79.79,0,0,1-.56-.22,1,1,0,0,1-.16-.65V5.39H98.27v7.46A5.63,5.63,0,0,0,96.45,11a4.75,4.75,0,0,0-2.6-.74,5.08,5.08,0,0,0-2.93.87,6,6,0,0,0-2,2.33,7.11,7.11,0,0,0-.73,3.24A6.82,6.82,0,0,0,88.63,19.18Zm-6.14.22a3.9,3.9,0,0,1-.84.78,4.4,4.4,0,0,1-1,.52,3.09,3.09,0,0,1-1.06.19A3.62,3.62,0,0,1,78,20.57a3.8,3.8,0,0,1-1.25-.9,3.94,3.94,0,0,1-.83-1.32,4.46,4.46,0,0,1-.29-1.6,4.64,4.64,0,0,1,.27-1.58,4.23,4.23,0,0,1,.75-1.35,3.75,3.75,0,0,1,1.18-1,3.21,3.21,0,0,1,1.52-.35,3.29,3.29,0,0,1,1.46.35,5.06,5.06,0,0,1,1.32,1A3.67,3.67,0,0,1,83,15.19v3.24A2.87,2.87,0,0,1,82.49,19.4Zm-9.15-.22a6.82,6.82,0,0,0,1.25,2.07,5.64,5.64,0,0,0,4.28,1.9,5.33,5.33,0,0,0,2.55-.66,5,5,0,0,0,1.94-1.86l0,.93a1.36,1.36,0,0,0,.54,1,1.92,1.92,0,0,0,1.26.43,7.82,7.82,0,0,0,1.15-.12V20.8a.76.76,0,0,1-.55-.22.94.94,0,0,1-.17-.65V5.39H83v7.46A5.6,5.6,0,0,0,81.17,11a4.81,4.81,0,0,0-2.61-.74,5.08,5.08,0,0,0-2.93.87,6.07,6.07,0,0,0-2,2.33,7.11,7.11,0,0,0-.73,3.24A7,7,0,0,0,73.34,19.18ZM61.93,13.93a3.76,3.76,0,0,1,1.36-1.27,3.72,3.72,0,0,1,1.81-.46,3.77,3.77,0,0,1,1.83.46,3.88,3.88,0,0,1,1.37,1.27,3.71,3.71,0,0,1,.61,1.87H61.33A3.9,3.9,0,0,1,61.93,13.93Zm5.62,8.8a6.29,6.29,0,0,0,2-1.15,4.85,4.85,0,0,0,1.24-1.65l-2.26-.65a2.74,2.74,0,0,1-1.28,1.4,4.07,4.07,0,0,1-2,.52,3.65,3.65,0,0,1-1.8-.46,3.83,3.83,0,0,1-2-3.18H71.46c0-.12,0-.25.05-.42s0-.34,0-.54a6.22,6.22,0,0,0-6.41-6.34,6.51,6.51,0,0,0-3.43.89,6.27,6.27,0,0,0-2.28,2.35,6.55,6.55,0,0,0,1,7.73,6.34,6.34,0,0,0,2.06,1.41,6.63,6.63,0,0,0,2.65.51A7,7,0,0,0,67.55,22.73ZM60,5.87H45.92V8.24h5.69V22.91h2.71V8.24H60Z"/></g></g></svg>