<svg xmlns="http://www.w3.org/2000/svg" viewBox="0 0 145.63 43.33"><defs><style>.cls-1{fill:#a76baa;}.cls-2{fill:none;}.cls-3{fill:#6a5ca5;}.cls-4{fill:#6f5ea6;}.cls-5{fill:#7862a7;}.cls-6{fill:#a169a9;}.cls-7{fill:#bb7382;}.cls-8{fill:#7360a7;}.cls-9{fill:#7e63a8;}.cls-10{fill:#b67092;}.cls-11{fill:#ac6caa;}.cls-12{fill:#8765a9;}.cls-13{fill:#9a68a9;}.cls-14{fill:#8f67aa;}.cls-15{fill:#bd747c;}.cls-16{fill:#9468a9;}.cls-17{fill:#8b66a9;}.cls-18{fill:#8264a9;}.cls-19{fill:#af6da6;}.cls-20{fill:#c2776d;}.cls-21{fill:#ba7287;}.cls-22{fill:#bf7578;}.cls-23{fill:#b47097;}.cls-24{fill:#c47969;}.cls-25{fill:#c67962;}.cls-26{fill:#c97b58;}.cls-27{fill:#b9728a;}.cls-28{fill:#b06da3;}.cls-29{fill:#c87a5e;}.cls-30{fill:#bf7574;}.cls-31{fill:#cb7c54;}.cls-32{fill:#c17671;}.cls-33{fill:#b7718d;}.cls-34{fill:#ce7d4d;}.cls-35{fill:#b36f9a;}.cls-36{fill:#d18045;}.cls-37{fill:#b26f9d;}.cls-38{fill:#e68d19;}.cls-39{fill:#cf7f49;}.cls-40{fill:#b67192;}.cls-41{fill:#bb7589;}.cls-42{fill:#b47098;}.cls-43{fill:#6d5da5;}.cls-44{fill:#b8728c;}.cls-45{fill:#d3813e;}.cls-46{fill:#b36f9c;}.cls-47{fill:#d5823a;}.cls-48{fill:#b16ea0;}.cls-49{fill:#e0871d;}.cls-50{fill:#7661a7;}.cls-51{fill:#b26e9e;}.cls-52{fill:#a96baa;}.cls-53{fill:#8866a9;}.cls-54{fill:#7f63a8;}.cls-55{fill:#da862f;}.cls-56{fill:#b16ea4;}.cls-57{fill:#b170a8;}.cls-58{fill:#9268aa;}.cls-59{fill:#dd8828;}.cls-60{fill:#bc778c;}.cls-61{fill:#d88536;}.cls-62{fill:#b06ea7;}</style></defs><g id="Calque_2" data-name="Calque 2"><g id="Calque_1-2" data-name="Calque 1"><path class="cls-1" d="M64.17,20.54a8,8,0,0,1-6.52,7.6A4.43,4.43,0,0,1,53.09,26,8.77,8.77,0,0,1,54,15.5a5.91,5.91,0,0,1,4.59-2.33,5,5,0,0,1,4.78,3.08,4.11,4.11,0,0,1,.17.57C63.77,18.13,64,19.43,64.17,20.54Zm-9.24-.73-.1,0a17.74,17.74,0,0,0,.54,3.11c1,2.84,2.05,2.84,4.37,2a2.28,2.28,0,0,0,1.61-1.76,8.42,8.42,0,0,0-1.48-6.93,1.56,1.56,0,0,0-.67-.55c-2-.78-4.35.83-4.22,2.82A10.62,10.62,0,0,1,54.93,19.81Zm7.6,3.34A8,8,0,0,1,58,26.65,4.19,4.19,0,0,0,62.53,23.15Zm-5.75-8.48a3.36,3.36,0,0,0-2.87,2.25Z"/><path class="cls-1" d="M74.06,22l-1,1.49a7.12,7.12,0,0,0-2.11-1.15,6.15,6.15,0,0,0-2.34.43.69.69,0,0,0-.49.93c.14.62.27,1.25.41,1.87A23.15,23.15,0,0,1,69.18,29c0,.41-.69.87-1.06,1.3-.25-.24-.5-.46-.73-.71a1.65,1.65,0,0,1-.2-.37,1.08,1.08,0,0,0-.17,0l-.91.52a5.25,5.25,0,0,1-.35-1c-.27-2-.51-4-.76-5.94A4.11,4.11,0,0,1,66.52,20a7.15,7.15,0,0,1,1.14.11c.15,0,.31-.12.49-.2L68,21.37c.39-.32.66-.56.94-.78a3.36,3.36,0,0,1,4.16-.4A2.19,2.19,0,0,1,74.06,22Z"/><path class="cls-1" d="M75.72,29.11c-.1-2.31-.21-4.72-.29-7.13a1.91,1.91,0,0,1,.88-1.63c.27-.21.55-.4.75-.55l.79.25c.08,1.93.15,3.87.24,5.82a5,5,0,0,0,.16,1,1.65,1.65,0,0,1-.43,1.93A1.75,1.75,0,0,1,75.72,29.11Z"/><path class="cls-1" d="M75.74,20c0-1.39-.2-2.56.45-3.63a2.61,2.61,0,0,1,.36-.55c.3-.27.51-.72,1.08-.46a1,1,0,0,1,.48,1.3,18.93,18.93,0,0,1-1.51,2.66C76.45,19.52,76.13,19.66,75.74,20Z"/><path class="cls-1" d="M102.12,25.46a7.71,7.71,0,0,1-.75.52,14.9,14.9,0,0,1-2.77,1.44,3.27,3.27,0,0,1-4-1.36h0c1.23-.09,2.46-.21,3.68-.4a6,6,0,0,0,1.55-.79h0l1-1.21a5.27,5.27,0,0,1,0-1.07,3.83,3.83,0,0,0-.26-2.11l-.06-.26-1.12-.59c-.27,0-.53,0-.78,0A8,8,0,0,0,93,22.42a11.08,11.08,0,0,0-1,1.24,3.77,3.77,0,0,0-.55,1.25,2.77,2.77,0,0,0,.59,2.39,8.13,8.13,0,0,0,3.08,2.49,2.37,2.37,0,0,0,2.4,0c1.3-.85,2.58-1.72,3.79-2.68a5.44,5.44,0,0,0,1-1.46ZM94,23.72c.67-.68,1.43-1.27,2.16-1.9a2,2,0,0,1,2.06-.39,3.36,3.36,0,0,1,.6.3,1.33,1.33,0,0,1,.47.73.89.89,0,0,1,0,.14c.06.43-.12.88-.1,1.32a2.67,2.67,0,0,1,0,.57.52.52,0,0,1-.48.19,14.79,14.79,0,0,1-3.13-.11A4.29,4.29,0,0,1,94,23.78Z"/><path class="cls-1" d="M140.8,21.43a13.2,13.2,0,0,0-.25-1.72l-1.09.84-.45-.93c-1.14.35-1.43,1-1.18,2a17.41,17.41,0,0,1,.54,3.12c.11,1.52.08,1.69-1,2.17l-.47.19c-1,.41-1.51.27-2-.69a4.78,4.78,0,0,1-.28-.61,5.73,5.73,0,0,1-.29-3.9c.16-.52.31-1.05.42-1.46l-1-.54a11.06,11.06,0,0,1-1.09,1,1.17,1.17,0,0,0-.49,1.27c.08.68.06,1.37.13,2.06.14,1.37.24,2.74.48,4.1.16.89.59,1.12,1.49,1.1a4.7,4.7,0,0,0,.85-.11,6.31,6.31,0,0,0,2.41-1.15l.47-.35.48.63a5,5,0,0,1,.13.93,20.1,20.1,0,0,1-1.42,2.57,8,8,0,0,1-.62.84l-.32.34h0a3.42,3.42,0,0,1-1.07.77,7.3,7.3,0,0,1-2.4.06c0,.41-.09,1-.16,1.81a2.22,2.22,0,0,0,1.7,1.07,3.21,3.21,0,0,0,2.89-1.43h0a4.56,4.56,0,0,0,1.21-1.55,30.77,30.77,0,0,0,1.65-3.3,8.73,8.73,0,0,0,.78-2.28C140.89,26,140.84,23.69,140.8,21.43Z"/><path class="cls-1" d="M90.13,25.62a5.11,5.11,0,0,1-.63.52c-.54.36-1.07.78-1.62,1.1l-.09.06a3.81,3.81,0,0,1-.62.28c-1.32.45-1.25.19-2.07-1.35a3.16,3.16,0,0,1-.47-1.69h0s0,0,0,0v-.08h0a7.9,7.9,0,0,0-.38-1.3c0-.2-.1-.37-.13-.54l.42-.47h.13l.31,0,.33-.05.26,0c.15,0,.28,0,.41-.06l.26-.05.39-.12.1,0h0a1,1,0,0,0,.62-.24l.06,0h0l-1-1-.53-.53c-.1.44-.45.7-1.11.92l0,0c-.5-.37-.47-.74-.29-1.91.06-.41.15-.82.24-1.23.15-.62.33-1.24.53-1.84.34-1,.09-1.62-1-2.06l-.52.89-.36-.32-.66-.6a14,14,0,0,0-.39,1.69c-.2,2-.39,4-.52,6.06v.08c0,.21,0,.42,0,.63a9.26,9.26,0,0,0,.59,2.34c0,.1.08.22.12.33l.06.26c.12.57.23,1.14.35,1.71a2,2,0,0,1,.25.39h0c.23.34.48.69.76,1A8.14,8.14,0,0,0,85.61,30c.25.17.41.25.72,0s.61-.49.92-.74c.77-.62,1.53-1.25,2.26-1.94a5.46,5.46,0,0,0,.81-1.45Z"/><path class="cls-1" d="M128.31,26l-.2-.39-.07-.13a3.1,3.1,0,0,1-.46-1.69h0s0,0,0,0v-.08h0a6.92,6.92,0,0,0-.38-1.31c0-.07,0-.19,0-.25,0-.29,0-.51,0-.72a3.44,3.44,0,0,1,0-.62,13,13,0,0,1,.18-2.26c0-.09,0-.18,0-.29.06-.41.15-.82.24-1.23h0l-1-3,0,0-.35-.33-.67-.6a14.46,14.46,0,0,0-.39,1.69c-.16,1.65-.31,3.29-.43,4.94a8.28,8.28,0,0,0-6.59,4,2.89,2.89,0,0,0,0,3.64,8.21,8.21,0,0,0,3.08,2.49,2.39,2.39,0,0,0,2.41,0c1.06-.69,2.09-1.42,3.1-2.18a8.18,8.18,0,0,0,1.7,1.57c.25.17.41.26.72,0s.61-.49.92-.73l.76-.63-.86-1C129,27.19,128.86,27,128.31,26Zm-3.56,1.45a3.27,3.27,0,0,1-4-1.36,5,5,0,0,0-.53-.61c-.6-.67-.64-1.09,0-1.73s1.43-1.27,2.16-1.9a2,2,0,0,1,2.32-.28,10.3,10.3,0,0,0,.59,2.29l.12.33.06.26c.12.57.23,1.14.35,1.71a2.06,2.06,0,0,1,.25.4h0l.16.23A6.86,6.86,0,0,1,124.75,27.42Z"/><path class="cls-1" d="M114.28,26l-.21-.39a.83.83,0,0,0-.07-.13,3.3,3.3,0,0,1-.46-1.69h0v-.12h0a6.23,6.23,0,0,0-.38-1.31c0-.07,0-.19,0-.25,0-.29,0-.51,0-.72,0-.4,0-.12,0-.62a13,13,0,0,1,.18-2.26c0-.09,0-.18,0-.29.07-.41.15-.82.25-1.23h0l-1-3,0,0-.36-.33-.67-.6a14.46,14.46,0,0,0-.39,1.69c-.16,1.65-.3,3.29-.43,4.94a8.26,8.26,0,0,0-6.58,4,2.86,2.86,0,0,0,0,3.64,8.18,8.18,0,0,0,3.07,2.49,2.39,2.39,0,0,0,2.41,0c1.06-.69,2.1-1.42,3.11-2.18a7.94,7.94,0,0,0,1.7,1.57c.25.17.41.26.72,0s.61-.49.91-.73l.76-.63-.86-1C114.93,27.19,114.83,27,114.28,26Zm-3.57,1.45a3.26,3.26,0,0,1-4-1.36,5.13,5.13,0,0,0-.54-.61c-.59-.67-.64-1.09,0-1.73s1.43-1.27,2.16-1.9a2,2,0,0,1,2.31-.28,10.5,10.5,0,0,0,.6,2.29l.12.33c0,.09,0,.18.05.26l.36,1.71a2.7,2.7,0,0,1,.25.4h0l.16.23A7.17,7.17,0,0,1,110.71,27.42Z"/><rect class="cls-2" width="145.63" height="43.33"/><path class="cls-3" d="M40.11,15.11q-1.05,5-2.09,10c-.13.61-.2,1.28-1,1.38-1.06.12-2.13,0-3.19.05-.64-.2-.25-.59-.11-.84.45-.83.91-1.66,1.38-2.48,1.36-2.42,2.74-4.84,4.09-7.26C39.38,15.6,39.51,15.08,40.11,15.11Z"/><path class="cls-4" d="M40.11,15.11a7.2,7.2,0,0,0-1.51,2.37c-1.72,3-3.37,6-5,9-.4.24-.84.06-1.25.11-.55-.35-.21-.75,0-1.09q1.93-3.5,3.9-7c1.2-2.15,2.42-4.29,3.62-6.44a3.17,3.17,0,0,1,.37-.58c.14-.15.31-.3.52-.2s.21.37.1.59C40.5,12.93,40.5,14.06,40.11,15.11Z"/><path class="cls-5" d="M38.38,10.8h1.38c.18.51-.16.89-.38,1.27-2.15,3.81-4.28,7.64-6.45,11.45-.44.77-.85,1.55-1.3,2.32-.15.27-.23.6-.58.71H29.86c-.42-.3-.15-.61,0-.89q2.51-4.59,5.11-9.13c.89-1.57,1.75-3.15,2.64-4.72A3.05,3.05,0,0,1,38.38,10.8Z"/><path class="cls-3" d="M34,32.27a2.45,2.45,0,0,1,2.49,2.51A2.53,2.53,0,1,1,34,32.27Z"/><path class="cls-1" d="M30.11,10.8h1.38c.16.35-.08.6-.23.87-2.66,4.71-5.29,9.44-8,14.14-.17.29-.29.63-.67.74s-.61,0-.91,0c-.42-.54,0-1,.2-1.41.83-1.46,1.67-2.92,2.5-4.39,1.49-2.66,3-5.33,4.48-8A8.4,8.4,0,0,1,30.11,10.8Z"/><path class="cls-6" d="M22.7,26.45,29.7,14l1.79-3.21h1c.16.34,0,.62-.18.88-1.49,2.6-2.91,5.24-4.4,7.84-1.17,2-2.35,4.06-3.4,6.15-.18.35-.32.75-.76.88C23.42,26.51,23,26.65,22.7,26.45Z"/><path class="cls-7" d="M14.93,26.64l0,.17c-.81,1.31-1.42,2.72-2.23,4-.14.22-.22.51-.47.59s-.35-.06-.2-.3c.53-1.34,1.06-2.68,1.61-4a1.58,1.58,0,0,0,.15-1A20.59,20.59,0,0,0,16,22.47c2.06-3.63,4.1-7.28,6.15-10.92a2.94,2.94,0,0,1,.56-.75h.86c.24.28.08.55-.06.79-2.77,4.91-5.47,9.85-8.3,14.72C15.12,26.43,15,26.49,14.93,26.64Z"/><path class="cls-8" d="M31.14,26.44a31.77,31.77,0,0,1,2.17-4.07c1.42-2.6,2.91-5.16,4.36-7.74.71-1.27,1.4-2.55,2.09-3.83,1.08-.05,1.29.16,1,1.06,0-.16.05-.39-.16-.44s-.32.19-.41.36l-2.51,4.47-5.29,9.39a1.35,1.35,0,0,0-.25.8A1.07,1.07,0,0,1,31.14,26.44Z"/><path class="cls-9" d="M38.38,10.8c-1.06,1.95-2.12,3.9-3.2,5.84-1.51,2.72-3.06,5.42-4.55,8.14a6.27,6.27,0,0,0-.87,1.66c-.28.22-.61.07-.92.11-.52-.39-.07-.73.1-1,1.42-2.61,2.91-5.18,4.36-7.78,1.15-2.07,2.32-4.14,3.49-6.2a2.94,2.94,0,0,1,.56-.75Z"/><path class="cls-10" d="M14.93,26.64l-.06-.13s0,0,.07-.05a.82.82,0,0,1,.47-.22l.52,0c.4,0,.53-.26.7-.53,1.05-1.71,1.86-3.54,2.82-5.3,1.63-3,3.32-5.89,5-8.85a1.92,1.92,0,0,1,.7-.74H26c.26.36,0,.66-.14.95-2.68,4.68-5.29,9.39-7.93,14.09a3.86,3.86,0,0,1-.55.65Z"/><path class="cls-11" d="M30.11,10.8A23.83,23.83,0,0,1,28,14.86c-1,1.89-2,3.75-3.07,5.61-.81,1.43-1.63,2.86-2.49,4.26a6.12,6.12,0,0,0-.75,1.72c-.29.21-.62.06-.93.1-.5-.37-.12-.74.05-1C22.4,22.68,24,19.82,25.58,17c1-1.75,2-3.49,2.94-5.24a3.56,3.56,0,0,1,.72-.95Z"/><path class="cls-12" d="M35.8,10.8h.69c.32.41,0,.77-.14,1.11-1.89,3.37-3.8,6.73-5.68,10.1-.68,1.23-1.39,2.44-2.06,3.67-.19.35-.36.73-.79.86a3.3,3.3,0,0,1-.77,0c-.25-.3,0-.54.12-.77.91-1.81,2-3.55,3-5.32,1.16-2,2.27-4.09,3.42-6.13.56-1,1.11-2,1.71-3A1.74,1.74,0,0,1,35.8,10.8Z"/><path class="cls-13" d="M23.9,26.45c1-2,2.13-4,3.22-5.92.66-1.19,1.38-2.36,2-3.59.53-1.05,1.13-2.08,1.72-3.1s1.13-2,1.69-3h.86c.18.45-.14.77-.33,1.1q-3.33,6-6.69,11.91l-1.13,2c-.17.3-.33.61-.7.71C24.32,26.53,24.09,26.63,23.9,26.45Z"/><path class="cls-14" d="M34.07,10.8h.86c.25.33,0,.6-.12.87-2.72,4.77-5.37,9.59-8.1,14.36a1,1,0,0,1-.44.51,5,5,0,0,1-.77,0c-.35-.39,0-.7.15-1q3-5.31,6-10.62c.63-1.12,1.26-2.25,1.9-3.37A2.69,2.69,0,0,1,34.07,10.8Z"/><path class="cls-15" d="M22.69,10.8A32.27,32.27,0,0,1,20.49,15C18.82,18,17.08,21,15.37,24.06c-.32.57-.63,1.15-1,1.72-.13.23-.25.55-.64.35l-.19-.7a44.21,44.21,0,0,1,2.21-4.06c1.78-3.23,3.61-6.43,5.42-9.65a3.63,3.63,0,0,1,.62-.92Z"/><path class="cls-16" d="M34.07,10.8A27.47,27.47,0,0,1,31.87,15C30.21,18,28.46,21,26.75,24.05c-.44.79-.86,1.6-1.3,2.4a.83.83,0,0,1-.86,0c1.72-3.06,3.45-6.11,5.16-9.16C31,15.13,32.17,13,33.38,10.8Z"/><path class="cls-17" d="M26.32,26.44c.74-1.73,1.79-3.3,2.69-5,1.46-2.68,3-5.31,4.48-8a15.2,15.2,0,0,0,1.44-2.7h.87c-1.13,2-2.26,3.93-3.37,5.91-.6,1.06-1.14,2.16-1.73,3.23-.71,1.26-1.47,2.49-2.18,3.75-.52.91-1,1.83-1.52,2.75A.52.52,0,0,1,26.32,26.44Z"/><path class="cls-18" d="M27.87,26.44c1-1.73,2-3.47,3-5.21L36.05,12a2.14,2.14,0,0,0,.44-1.19h.86A27.52,27.52,0,0,1,35.14,15C33.48,18,31.74,21,30,24.05c-.45.79-.87,1.59-1.3,2.39A.77.77,0,0,1,27.87,26.44Z"/><path class="cls-19" d="M29.24,10.8a50.61,50.61,0,0,1-2.48,4.58c-1.73,3.15-3.53,6.26-5.28,9.4a5.18,5.18,0,0,0-.85,1.67.69.69,0,0,1-.86,0c-.19-.2,0-.5.13-.71,1.39-2.46,2.73-4.95,4.16-7.38a1.89,1.89,0,0,0,.67-1.21,1,1,0,0,1,.22-.42,2.51,2.51,0,0,0,.77-1.17c.67-1.31,1.57-2.49,2.12-3.87a1.83,1.83,0,0,1,.89-.87Z"/><path class="cls-20" d="M13.07,23.7l-.34-1.19q3-5.37,6-10.75a2.25,2.25,0,0,1,.82-1h.69c.26.34,0,.6-.16.86-1.73,3.18-3.54,6.33-5.32,9.49-.38.67-.72,1.37-1.14,2C13.51,23.39,13.45,23.72,13.07,23.7Z"/><path class="cls-21" d="M15.46,26.45h-.52c1.07-1.95,2.13-3.9,3.21-5.84,1.49-2.67,3-5.32,4.48-8a5.61,5.61,0,0,0,.93-1.82h.69c.18.48-.15.83-.35,1.19-1.64,2.88-3.24,5.78-4.87,8.67l-2.82,5A1.54,1.54,0,0,1,15.46,26.45Z"/><path class="cls-22" d="M21.83,10.8a14.24,14.24,0,0,1-1.66,3.25c-1.46,2.71-3,5.39-4.53,8.06a15.21,15.21,0,0,1-2.06,3.32,1.65,1.65,0,0,1-.22-.84c1.55-2.9,3.2-5.74,4.8-8.61.83-1.48,1.65-3,2.49-4.42a1.76,1.76,0,0,1,.67-.76Z"/><path class="cls-23" d="M17.35,26.49c.88-2,2.12-3.89,3.19-5.83,1.69-3.07,3.44-6.1,5.16-9.15A5.48,5.48,0,0,0,26,10.8h.69c.16.31,0,.56-.16.8-1.7,2.92-3.31,5.89-5,8.81-.94,1.64-1.87,3.29-2.74,5a2.39,2.39,0,0,1-.9,1.11Z"/><path class="cls-24" d="M19.59,10.8q-3.18,5.65-6.35,11.31a.62.62,0,0,1-.51.4l-.19-.69a2.23,2.23,0,0,1,.36-1c1.71-3.08,3.46-6.13,5.17-9.2a2.91,2.91,0,0,1,.66-.78Z"/><path class="cls-25" d="M18.73,10.8c-.93,1.69-1.85,3.39-2.8,5.08-1.12,2-2.26,4-3.39,5.94a3,3,0,0,1-.35-1.21c.64-1.24,1.38-2.42,2-3.64,1-1.75,2-3.48,2.91-5.23a2.94,2.94,0,0,1,.73-.94Z"/><path class="cls-26" d="M12,19.78l-.27-.89A48.28,48.28,0,0,1,14.31,14c.4-.73.79-1.46,1.2-2.18a3.7,3.7,0,0,1,.8-1h.87c.23.3,0,.54-.11.78q-2.13,3.83-4.28,7.63C12.62,19.52,12.44,19.89,12,19.78Z"/><path class="cls-27" d="M15.46,26.45c1.13-2,2.28-3.94,3.39-5.93,1.81-3.23,3.6-6.48,5.4-9.72h.51c0,.62-.43,1-.69,1.51-1.7,3-3.43,6.06-5.11,9.1-.81,1.48-1.58,3-2.41,4.43a1.3,1.3,0,0,1-.57.61Z"/><path class="cls-28" d="M24.24,18.38l-4,7.27c-.12.22-.38.46-.27.69s.46.09.71.11H33.56L37,26.5a1,1,0,0,1-.67.11l-16.27,0a5.05,5.05,0,0,1-.68-.07.17.17,0,0,1-.19-.12,12,12,0,0,1,1.35-2.65c1.05-1.89,2.13-3.77,3.17-5.67.14-.25.26-.51.56-.61a.29.29,0,0,1,.23.1C24.67,17.92,24.39,18.13,24.24,18.38Z"/><path class="cls-29" d="M12,19.78c.65-.29.77-1,1.07-1.51,1.41-2.47,2.77-5,4.15-7.47h.69c-.73,1.66-1.75,3.17-2.61,4.76-.66,1.22-1.36,2.42-2,3.65a3.94,3.94,0,0,1-1.06,1.4A1.84,1.84,0,0,1,12,19.78Z"/><path class="cls-30" d="M21.32,10.8l-6.1,10.85c-.41.72-.81,1.45-1.2,2.18a1.45,1.45,0,0,1-.66.76l-.13-.36a6.48,6.48,0,0,1,1.12-2.3c1.91-3.43,3.84-6.85,5.76-10.27a2.15,2.15,0,0,1,.69-.86Z"/><path class="cls-31" d="M16.31,10.8c-1.13,2-2.25,4-3.39,6.07a6.27,6.27,0,0,1-1.23,2l-.35-1.2c1.18-2,2.31-4,3.43-6a3,3,0,0,1,.68-.86Z"/><path class="cls-32" d="M20.8,10.8,13.23,24.23l-.16-.52c1.66-2.93,3.33-5.85,5-8.79.77-1.36,1.49-2.74,2.24-4.12Z"/><path class="cls-33" d="M16,26.45q3.39-6,6.8-12.06c.67-1.19,1.32-2.39,2-3.59h.35c-2,3.51-4,7-5.91,10.54-.81,1.53-1.6,3.08-2.44,4.6C16.58,26.27,16.4,26.53,16,26.45Z"/><path class="cls-34" d="M15.45,10.8c-1.1,2.28-2.45,4.43-3.68,6.65a.52.52,0,0,1-.43.24l-.22-.85a48,48,0,0,1,2.39-4.33c.32-.59.46-1.31,1.08-1.71Z"/><path class="cls-35" d="M17.86,26.49q3.77-6.68,7.53-13.35c.44-.77.85-1.56,1.27-2.34H27c.29.83-.45,1.26-.71,1.89a1.79,1.79,0,0,0-.49.77c-.07.15-.15.29-.23.43-1.57,2.58-3,5.25-4.49,7.88-.82,1.43-1.61,2.88-2.43,4.32a.88.88,0,0,1-.41.42l-.24,0-.07,0Z"/><path class="cls-36" d="M13,10.8h1c.16.34-.05.61-.2.87-.72,1.22-1.38,2.48-2.1,3.7-.2.34-.37.82-.94.6l-.35-1.2c.74-1,1.15-2.14,1.84-3.14A2.38,2.38,0,0,1,13,10.8Z"/><path class="cls-37" d="M26.14,12.7c.11-.71.79-1.17.86-1.9h.69c.24.64-.28,1.06-.53,1.51-.62,1.14-1.26,2.27-1.89,3.41s-1.51,2.34-2.14,3.58a2,2,0,0,1-.51.78.42.42,0,0,1-.49,0,6.53,6.53,0,0,1,1.12-2.33c.7-1.36,1.55-2.64,2.2-4l.17-.34C25.87,13.22,26,12.91,26.14,12.7Z"/><path class="cls-38" d="M7.69,8.43c-.55.13-1.19-.07-1.65.49-.21.26-.59.16-.86,0A.79.79,0,0,1,4.84,8a.77.77,0,0,1,.73-.62c.82,0,1.65,0,2.47,0C8.33,7.86,7.94,8.12,7.69,8.43Z"/><path class="cls-39" d="M10.84,16c.81-.19.86-1,1.2-1.55.74-1.17,1.36-2.41,2-3.62h.51a32.77,32.77,0,0,1-2.66,4.82c-.28.4-.15,1.08-.81,1.22A2.07,2.07,0,0,1,10.84,16Z"/><path class="cls-40" d="M13,32.31a1.13,1.13,0,0,1,.86.17,1,1,0,0,1-.19,1c-.57.93-1,1.92-1.65,2.81-.17.24-.31.59-.73.36a.69.69,0,0,1-.39-.49A12.09,12.09,0,0,1,13,32.31Z"/><path class="cls-41" d="M12,31.12c.24,0,.24,0,.29-.08l2.15-3.78c.11-.19.18-.43.46-.45-.59,1.48-1.19,3-1.78,4.43-.26.65-.9.44-1.4.71A1.05,1.05,0,0,1,12,31.12Z"/><path class="cls-42" d="M11.33,36.62c.75-.32.95-1.1,1.27-1.69a14.71,14.71,0,0,0,1.3-2.45.86.86,0,0,1,.69.35.38.38,0,0,1,0,.4c-.73,1.18-1.35,2.42-2.07,3.61a1,1,0,0,1-.3.29A1.31,1.31,0,0,1,11.33,36.62Z"/><path class="cls-43" d="M28.38,32.85h3c-.08.87-.54,1.17-1.38,1.08s-1.43,0-2.14,0C27.59,33.31,28,33.08,28.38,32.85Z"/><path class="cls-44" d="M13,32.31a26.77,26.77,0,0,1-2.1,3.82,1.07,1.07,0,0,1-.33-.84A4.69,4.69,0,0,1,12,32.51,1.47,1.47,0,0,1,13,32.31Z"/><path class="cls-45" d="M13,10.8c-.65,1.18-1.29,2.37-2,3.54-.11.19-.15.61-.58.43l-.19-.7a8.31,8.31,0,0,1,1.88-3.27Z"/><path class="cls-46" d="M12.18,37.13a26.28,26.28,0,0,1,2.41-4.3.56.56,0,0,1,.35.34c.31.65-.24,1.09-.5,1.54-.51.89-.78,2-1.74,2.57A.74.74,0,0,1,12.18,37.13Z"/><path class="cls-47" d="M12.18,10.8a29.44,29.44,0,0,1-1.88,3.27,3,3,0,0,1-.34-1.2,6.09,6.09,0,0,1,1.18-2.07Z"/><path class="cls-48" d="M12.7,37.28a28.21,28.21,0,0,0,2.24-4.11.65.65,0,0,1,.34.52c.19.54-.16.93-.41,1.32a10.31,10.31,0,0,1-1.48,2.27Z"/><path class="cls-49" d="M7.69,8.43l.35-1c1.36-.08,1.42,0,1.71,1-.15.41-.22.9-.84.86A1,1,0,0,0,7.69,8.43Z"/><path class="cls-48" d="M25.11,15.63l2.58-4.83h.52a9.28,9.28,0,0,1-1.34,2.8c-.23.43-.5.83-.71,1.27-.42.28-.48.83-.86,1.14a.29.29,0,0,1-.24,0A.27.27,0,0,1,25.11,15.63Z"/><path class="cls-50" d="M28.38,32.85a2.13,2.13,0,0,0-.51,1H25.8c-.32-.49-.08-.79.34-1Z"/><path class="cls-51" d="M18,26.48l.22,0a30.69,30.69,0,0,0,2.43-4.06,5.91,5.91,0,0,1,.57-.84.43.43,0,0,1,.47-.08c0,.94-.75,1.55-1.1,2.34a17.22,17.22,0,0,0-1.34,2.64l.13.07A7.49,7.49,0,0,1,18,26.48Z"/><path class="cls-52" d="M18.38,33.88H16.49c-.27-.47,0-.75.34-1h1.9C19.05,33.34,18.75,33.62,18.38,33.88Z"/><path class="cls-28" d="M26,14.77l2.24-4h.52c-.68.7-.82,1.72-1.43,2.44s-.69,1.79-1.5,2.39l-.08-.09A1.19,1.19,0,0,1,26,14.77Z"/><path class="cls-53" d="M23.9,33.88H22.18c-.27-.47,0-.75.34-1h1.89A1,1,0,0,1,23.9,33.88Z"/><path class="cls-54" d="M23.9,33.88l.51-1h1.73a1.89,1.89,0,0,0-.34,1Z"/><path class="cls-55" d="M10.14,9.76c.1.32,0,.79.49,1,0,.68-.16,1.18-.93,1.25l-.44-1.58C9.47,10.12,9.58,9.66,10.14,9.76Z"/><path class="cls-56" d="M13.39,37.28C13.8,36,14.86,35,15.28,33.69a.55.55,0,0,1,.18.51,4.33,4.33,0,0,1-1.56,2.93A.7.7,0,0,1,13.39,37.28Z"/><path class="cls-57" d="M13.9,37.13a24.75,24.75,0,0,1,1.42-2.37.87.87,0,0,0,.14-.56A2.35,2.35,0,0,1,13.9,37.13Z"/><path class="cls-58" d="M22.52,32.85l-.34,1H20.62a.86.86,0,0,1,.52-1Z"/><path class="cls-59" d="M10.14,9.76c-.4.1-.45.64-.88.7-.12-.39-.24-.78-.35-1.2.42-.16.47-.67.84-.86Z"/><path class="cls-60" d="M12,32.51l-1.39,2.78A2.26,2.26,0,0,1,12,32.51Z"/><path class="cls-6" d="M18.38,33.88c.14-.34.39-.63.35-1h1.38c.27.57-.26.73-.52,1Z"/><path class="cls-61" d="M9.7,12a2.7,2.7,0,0,0,.93-1.25h.51A4.67,4.67,0,0,1,10,12.87Z"/><path class="cls-13" d="M19.59,33.88c0-.44.53-.59.52-1h1l-.52,1Z"/><path class="cls-62" d="M16.83,32.85l-.34,1c-.76.12-.57-.64-1.11-1Z"/><path class="cls-28" d="M25.11,16h.17c.16-.14.19-.46.52-.34h0a1.33,1.33,0,0,1-.69,1.2.52.52,0,0,1-.18-.5A.5.5,0,0,1,25.11,16Z"/><path class="cls-28" d="M24.24,18.38l.18-.86c.07-.26.19-.45.51-.34A1.29,1.29,0,0,1,24.24,18.38Z"/><path class="cls-28" d="M24.93,17.18l-.51.34h0a.93.93,0,0,1,.69-1.2v.51A.39.39,0,0,0,24.93,17.18Z"/><path class="cls-48" d="M25.11,16.32a1.81,1.81,0,0,0-.69,1.2A10,10,0,0,0,23,19.84c-1.28,2.19-2.51,4.4-3.76,6.61-.21-.43.08-.7.27-1,.71-1.31,1.56-2.55,2.14-3.93-.14-.27,0-.45.17-.65s.46-.6.69-.9A16.48,16.48,0,0,0,24,17.41l1.08-1.78v.69Z"/><path class="cls-35" d="M21.31,21.65c-.47.85-1,1.69-1.46,2.54s-.67,1.82-1.63,2.26q3.38-6,6.77-12.11a5.13,5.13,0,0,1,.46-.61,3,3,0,0,1-.5,1.32,55,55,0,0,0-2.77,5.05c.1.17,0,.3-.09.43A12.44,12.44,0,0,0,21.31,21.65Z"/><path class="cls-35" d="M26.14,12.7c0,.37-.08.66-.52.69C25.68,13.08,25.74,12.76,26.14,12.7Z"/><path class="cls-51" d="M22,20.45l.18-.35.34-.17A1.88,1.88,0,0,1,22,21,.37.37,0,0,1,22,20.45Z"/><path class="cls-28" d="M25.8,15.63l-.52.34a1.85,1.85,0,0,1,.69-1.2Z"/><path class="cls-37" d="M22,20.45V21l-.34.52-.35.17A1.89,1.89,0,0,1,22,20.45Z"/></g></g></svg>