<svg xmlns="http://www.w3.org/2000/svg" viewBox="0 0 96.37 43.33"><defs><style>.cls-1{fill:none;}</style></defs><g id="Calque_2" data-name="Calque 2"><g id="Calque_1-2" data-name="Calque 1"><rect class="cls-1" width="96.37" height="43.33"/><path d="M15.53,20.54A8,8,0,0,1,9,28.14,4.42,4.42,0,0,1,4.46,26,8.75,8.75,0,0,1,5.38,15.5,5.91,5.91,0,0,1,10,13.17a5,5,0,0,1,4.78,3.08,4,4,0,0,1,.16.57C15.14,18.13,15.35,19.43,15.53,20.54Zm-9.24-.73-.1,0a18.72,18.72,0,0,0,.54,3.11c1,2.84,2,2.84,4.37,2a2.29,2.29,0,0,0,1.62-1.76,8.49,8.49,0,0,0-1.48-6.93,1.62,1.62,0,0,0-.67-.55,3.13,3.13,0,0,0-4.22,2.82A10.63,10.63,0,0,1,6.29,19.81Zm7.61,3.34a8.06,8.06,0,0,1-4.52,3.5A4.19,4.19,0,0,0,13.9,23.15ZM8.14,14.67a3.33,3.33,0,0,0-2.86,2.25Z"/><path d="M25.43,22l-1.05,1.49a7,7,0,0,0-2.11-1.15,6.19,6.19,0,0,0-2.34.43.69.69,0,0,0-.49.93c.15.62.28,1.25.42,1.87A23.15,23.15,0,0,1,20.55,29c0,.41-.69.87-1.07,1.3-.24-.24-.49-.46-.72-.71a1.68,1.68,0,0,1-.21-.37,1.23,1.23,0,0,0-.16,0l-.91.52a5.25,5.25,0,0,1-.35-1c-.27-2-.51-4-.76-5.94A4.08,4.08,0,0,1,17.89,20a7,7,0,0,1,1.13.11c.15,0,.31-.12.5-.2l-.13,1.43c.39-.32.66-.56.94-.78a3.36,3.36,0,0,1,4.16-.4A2.23,2.23,0,0,1,25.43,22Z"/><path d="M27.08,29.11c-.09-2.31-.2-4.72-.29-7.13a1.93,1.93,0,0,1,.88-1.63l.76-.55.79.25q.11,2.89.24,5.82a3.94,3.94,0,0,0,.16,1,1.64,1.64,0,0,1-.44,1.93A1.75,1.75,0,0,1,27.08,29.11Z"/><path d="M27.1,20c0-1.39-.2-2.56.45-3.63a2.65,2.65,0,0,1,.37-.55c.29-.27.5-.72,1.08-.46a.93.93,0,0,1,.47,1.3A19.91,19.91,0,0,1,28,19.28C27.82,19.52,27.5,19.66,27.1,20Z"/><path d="M53.48,25.46a7.57,7.57,0,0,1-.74.52A15.3,15.3,0,0,1,50,27.42a3.27,3.27,0,0,1-4-1.36h0c1.23-.09,2.46-.21,3.68-.4a5.88,5.88,0,0,0,1.56-.79h0l1-1.21a5.27,5.27,0,0,1,0-1.07A3.83,3.83,0,0,0,52,20.47c0-.09,0-.18,0-.26l-1.13-.59c-.27,0-.52,0-.78,0a8,8,0,0,0-5.61,2.76,11.08,11.08,0,0,0-1,1.24,3.77,3.77,0,0,0-.55,1.25,2.84,2.84,0,0,0,.59,2.39,8.21,8.21,0,0,0,3.08,2.49,2.39,2.39,0,0,0,2.41,0c1.3-.85,2.57-1.72,3.79-2.68a5.69,5.69,0,0,0,1-1.46ZM45.4,23.72c.67-.68,1.43-1.27,2.16-1.9a2,2,0,0,1,2.06-.39,2.81,2.81,0,0,1,.6.3,1.28,1.28,0,0,1,.47.73,1,1,0,0,1,0,.14c.05.43-.12.88-.1,1.32a3.57,3.57,0,0,1,0,.57.51.51,0,0,1-.48.19A14.7,14.7,0,0,1,47,24.57a4.33,4.33,0,0,1-1.69-.79Z"/><path d="M92.17,21.43a13.39,13.39,0,0,0-.26-1.72l-1.09.84-.45-.93c-1.13.35-1.43,1-1.17,2a17.39,17.39,0,0,1,.53,3.12c.12,1.52.09,1.69-1,2.17l-.46.19c-1,.41-1.51.27-2-.69-.1-.2-.19-.4-.28-.61a5.79,5.79,0,0,1-.28-3.9l.42-1.46-1-.54a10.2,10.2,0,0,1-1.1,1,1.14,1.14,0,0,0-.48,1.27c.07.68.06,1.37.13,2.06.13,1.37.23,2.74.48,4.1.16.89.58,1.12,1.48,1.1a4.82,4.82,0,0,0,.86-.11,6.27,6.27,0,0,0,2.4-1.15l.48-.35.48.63a4.94,4.94,0,0,1,.12.93,20,20,0,0,1-1.41,2.57,9.7,9.7,0,0,1-.62.84l-.33.34h0a3.38,3.38,0,0,1-1.06.77,7.36,7.36,0,0,1-2.41.06c0,.41-.08,1-.15,1.81a2.19,2.19,0,0,0,1.69,1.07,3.18,3.18,0,0,0,2.89-1.43h0a4.44,4.44,0,0,0,1.21-1.55,30.81,30.81,0,0,0,1.66-3.3,9.6,9.6,0,0,0,.78-2.28C92.25,26,92.21,23.69,92.17,21.43Z"/><path d="M41.5,25.62a6,6,0,0,1-.63.52c-.54.36-1.07.78-1.63,1.1l-.09.06a3.71,3.71,0,0,1-.61.28c-1.32.45-1.26.19-2.08-1.35A3.3,3.3,0,0,1,36,24.54h0v0s0,0,0-.08h0a6.29,6.29,0,0,0-.38-1.3l-.13-.54.43-.47H36l.32,0,.32-.05.27,0c.14,0,.27,0,.41-.06l.25-.05.39-.12.1,0h0a.93.93,0,0,0,.62-.24l.07,0h0l-1-1-.53-.53c-.11.44-.45.7-1.11.92l0,0c-.5-.37-.48-.74-.3-1.91.06-.41.15-.82.25-1.23.15-.62.32-1.24.53-1.84.33-1,.09-1.62-1-2.06l-.52.89-.35-.32-.67-.6a14,14,0,0,0-.39,1.69c-.19,2-.38,4-.52,6.06v.08c0,.21,0,.42,0,.63a9.43,9.43,0,0,0,.6,2.34l.12.33c0,.08,0,.17,0,.26l.36,1.71a3.73,3.73,0,0,1,.25.39h0c.23.34.49.69.76,1A8.38,8.38,0,0,0,37,30c.25.17.42.25.72,0s.62-.49.92-.74c.77-.62,1.54-1.25,2.27-1.94a6.08,6.08,0,0,0,.81-1.45Z"/><path class="cls-1" d="M77.41,26.53a3.89,3.89,0,0,0-.25-.4l-.36-1.71c0-.08,0-.17,0-.26l-.12-.33a10.5,10.5,0,0,1-.6-2.29,2,2,0,0,0-2.31.28c-.74.63-1.49,1.22-2.17,1.9s-.58,1.06,0,1.73a5.13,5.13,0,0,1,.54.61,3.26,3.26,0,0,0,4,1.36,7.17,7.17,0,0,0,1.47-.67l-.16-.23Z"/><path d="M79.68,26l-.21-.39a.83.83,0,0,0-.07-.13,3.3,3.3,0,0,1-.46-1.69h0v-.12h0a6.23,6.23,0,0,0-.38-1.31c0-.07,0-.19,0-.25,0-.29,0-.51,0-.72,0-.4,0-.12,0-.62a13,13,0,0,1,.18-2.26c0-.09,0-.18,0-.29.07-.41.15-.82.25-1.23h0l-1-3,0,0-.36-.33L77,13a14.46,14.46,0,0,0-.39,1.69c-.16,1.65-.3,3.29-.43,4.94a8.26,8.26,0,0,0-6.58,4,2.86,2.86,0,0,0,0,3.64,8.1,8.1,0,0,0,3.07,2.49,2.39,2.39,0,0,0,2.41,0c1.06-.69,2.1-1.42,3.11-2.18a8.15,8.15,0,0,0,1.69,1.57c.26.17.42.26.73,0s.61-.49.91-.73l.76-.63-.86-1C80.33,27.19,80.22,27,79.68,26Zm-3.57,1.45a3.26,3.26,0,0,1-4-1.36,5.13,5.13,0,0,0-.54-.61c-.59-.67-.64-1.09,0-1.73s1.43-1.27,2.17-1.9A2,2,0,0,1,76,21.54a10.5,10.5,0,0,0,.6,2.29l.12.33c0,.09,0,.18,0,.26l.36,1.71a3.89,3.89,0,0,1,.25.4h0l.16.23A7.17,7.17,0,0,1,76.11,27.42Z"/><path class="cls-1" d="M63.37,26.53a2.06,2.06,0,0,0-.25-.4c-.12-.57-.23-1.14-.35-1.71l-.06-.26c0-.11-.08-.22-.11-.33a9.93,9.93,0,0,1-.6-2.29,2,2,0,0,0-2.32.28c-.73.63-1.49,1.22-2.16,1.9s-.59,1.06,0,1.73a5,5,0,0,1,.53.61,3.27,3.27,0,0,0,4,1.36,6.86,6.86,0,0,0,1.46-.67l-.16-.23Z"/><path d="M65.64,26l-.2-.39-.07-.13a3.1,3.1,0,0,1-.46-1.69h0a.08.08,0,0,0,0,0v-.08h0a6.23,6.23,0,0,0-.38-1.31c0-.07,0-.19,0-.25,0-.29,0-.51,0-.72a3.44,3.44,0,0,1,0-.62,13,13,0,0,1,.18-2.26c0-.09,0-.18,0-.29.06-.41.15-.82.24-1.23h0l-1-3,0,0-.35-.33L63,13a14.46,14.46,0,0,0-.39,1.69c-.16,1.65-.31,3.29-.43,4.94a8.28,8.28,0,0,0-6.59,4,2.89,2.89,0,0,0,0,3.64,8.21,8.21,0,0,0,3.08,2.49,2.39,2.39,0,0,0,2.41,0c1.06-.69,2.09-1.42,3.1-2.18a8.18,8.18,0,0,0,1.7,1.57c.25.17.42.26.72,0s.61-.49.92-.73l.76-.63-.86-1C66.29,27.19,66.19,27,65.64,26Zm-3.56,1.45a3.27,3.27,0,0,1-4-1.36,5,5,0,0,0-.53-.61c-.6-.67-.64-1.09,0-1.73s1.43-1.27,2.16-1.9A2,2,0,0,1,62,21.54a9.93,9.93,0,0,0,.6,2.29c0,.11.08.22.11.33l.06.26c.12.57.23,1.14.35,1.71a2.06,2.06,0,0,1,.25.4h0l.16.23A6.86,6.86,0,0,1,62.08,27.42Z"/></g></g></svg>