<svg xmlns="http://www.w3.org/2000/svg" viewBox="0 0 162.12 43.33"><defs><style>.cls-1{fill:#6a5ca5;}.cls-2{fill:none;}.cls-3{fill:#6f5ea6;}.cls-4{fill:#7862a7;}.cls-5{fill:#a76baa;}.cls-6{fill:#a169a9;}.cls-7{fill:#bb7382;}.cls-8{fill:#7360a7;}.cls-9{fill:#7e63a8;}.cls-10{fill:#b67092;}.cls-11{fill:#ac6caa;}.cls-12{fill:#8765a9;}.cls-13{fill:#9a68a9;}.cls-14{fill:#8f67aa;}.cls-15{fill:#bd747c;}.cls-16{fill:#9468a9;}.cls-17{fill:#8b66a9;}.cls-18{fill:#8264a9;}.cls-19{fill:#af6da6;}.cls-20{fill:#c2776d;}.cls-21{fill:#ba7287;}.cls-22{fill:#bf7578;}.cls-23{fill:#b47097;}.cls-24{fill:#c47969;}.cls-25{fill:#c67962;}.cls-26{fill:#c97b58;}.cls-27{fill:#b9728a;}.cls-28{fill:#b06da3;}.cls-29{fill:#c87a5e;}.cls-30{fill:#bf7574;}.cls-31{fill:#cb7c54;}.cls-32{fill:#c17671;}.cls-33{fill:#b7718d;}.cls-34{fill:#ce7d4d;}.cls-35{fill:#b36f9a;}.cls-36{fill:#d18045;}.cls-37{fill:#b26f9d;}.cls-38{fill:#e68d19;}.cls-39{fill:#cf7f49;}.cls-40{fill:#b67192;}.cls-41{fill:#bb7589;}.cls-42{fill:#b47098;}.cls-43{fill:#6d5da5;}.cls-44{fill:#b8728c;}.cls-45{fill:#d3813e;}.cls-46{fill:#b36f9c;}.cls-47{fill:#d5823a;}.cls-48{fill:#b16ea0;}.cls-49{fill:#e0871d;}.cls-50{fill:#7661a7;}.cls-51{fill:#b26e9e;}.cls-52{fill:#a96baa;}.cls-53{fill:#8866a9;}.cls-54{fill:#7f63a8;}.cls-55{fill:#da862f;}.cls-56{fill:#b16ea4;}.cls-57{fill:#b170a8;}.cls-58{fill:#9268aa;}.cls-59{fill:#dd8828;}.cls-60{fill:#bc778c;}.cls-61{fill:#d88536;}.cls-62{fill:#b06ea7;}</style></defs><g id="Calque_2" data-name="Calque 2"><g id="Calque_1-2" data-name="Calque 1"><path class="cls-1" d="M64.17,20.54a8,8,0,0,1-6.52,7.6A4.43,4.43,0,0,1,53.09,26,8.77,8.77,0,0,1,54,15.5a5.91,5.91,0,0,1,4.59-2.33,5,5,0,0,1,4.78,3.08,4.11,4.11,0,0,1,.17.57C63.77,18.13,64,19.43,64.17,20.54Zm-9.24-.73-.1,0a17.74,17.74,0,0,0,.54,3.11c1,2.84,2.05,2.84,4.37,2a2.28,2.28,0,0,0,1.61-1.76,8.42,8.42,0,0,0-1.48-6.93,1.56,1.56,0,0,0-.67-.55c-2-.78-4.35.83-4.22,2.82A10.62,10.62,0,0,1,54.93,19.81Zm7.6,3.34A8,8,0,0,1,58,26.65,4.19,4.19,0,0,0,62.53,23.15Zm-5.75-8.48a3.36,3.36,0,0,0-2.87,2.25Z"/><path class="cls-1" d="M74.06,22l-1,1.49a7.12,7.12,0,0,0-2.11-1.15,6.15,6.15,0,0,0-2.34.43.69.69,0,0,0-.49.93c.14.62.27,1.25.41,1.87A23.15,23.15,0,0,1,69.18,29c0,.41-.69.87-1.06,1.3-.25-.24-.5-.46-.73-.71a1.65,1.65,0,0,1-.2-.37,1.08,1.08,0,0,0-.17,0l-.91.52a5.25,5.25,0,0,1-.35-1c-.27-2-.51-4-.76-5.94A4.11,4.11,0,0,1,66.52,20a7.15,7.15,0,0,1,1.14.11c.15,0,.31-.12.49-.2L68,21.37c.39-.32.66-.56.94-.78a3.36,3.36,0,0,1,4.16-.4A2.19,2.19,0,0,1,74.06,22Z"/><path class="cls-1" d="M75.72,29.11c-.1-2.31-.21-4.72-.29-7.13a1.91,1.91,0,0,1,.88-1.63c.27-.21.55-.4.75-.55l.79.25c.08,1.93.15,3.87.24,5.82a5,5,0,0,0,.16,1,1.65,1.65,0,0,1-.43,1.93A1.75,1.75,0,0,1,75.72,29.11Z"/><path class="cls-1" d="M75.74,20c0-1.39-.2-2.56.45-3.63a2.61,2.61,0,0,1,.36-.55c.3-.27.51-.72,1.08-.46a1,1,0,0,1,.48,1.3,18.93,18.93,0,0,1-1.51,2.66C76.45,19.52,76.13,19.66,75.74,20Z"/><path class="cls-1" d="M122.43,27.05c-.08-.68-.06-1.38-.13-2.06-.14-1.37-.24-2.75-.48-4.1-.16-.89-.59-1.12-1.49-1.1A5.82,5.82,0,0,0,117.07,21l-.79.59c0-.1,0-.21,0-.32l-.06-.42a1.49,1.49,0,0,0-.32-.76,1,1,0,0,0-.59-.3,2.12,2.12,0,0,0-.58,0,4.2,4.2,0,0,0-.62.06A6.31,6.31,0,0,0,111.42,21l-.84.63V19.94l-.94.46c0-.5,0-.95-.07-1.43a2,2,0,0,0-1.47,2c0,2.26,0,4.52,0,6.79a13.66,13.66,0,0,0,.26,1.72l1.09-.85.45.94c1.13-.35,1.43-1,1.17-2a18.33,18.33,0,0,1-.53-3.12c-.13-1.71-.07-1.72,1.51-2.37.78-.32,1.26-.3,1.66.18a2.37,2.37,0,0,1,.34.51,6,6,0,0,1,.56,4.51l-.41,1.46.43.24.47-.37.25.51a6.54,6.54,0,0,1,.91-.79,1,1,0,0,0,.48-.68.22.22,0,0,1,0-.08,17.41,17.41,0,0,1-.54-3.12c-.07-1-.08-1.39.21-1.7a4,4,0,0,1,1.3-.67c1-.41,1.51-.27,2,.69a6,6,0,0,1,.57,4.51c-.16.53-.31,1.06-.42,1.46l1,.55a9.9,9.9,0,0,1,1.09-1A1.17,1.17,0,0,0,122.43,27.05Z"/><path class="cls-1" d="M92.22,25.07a5.54,5.54,0,0,1-1,1.45c-1.21,1-2.49,1.84-3.79,2.68a2.35,2.35,0,0,1-2.4,0A8.11,8.11,0,0,1,82,26.73a2.88,2.88,0,0,1,0-3.64,8.27,8.27,0,0,1,7.36-4,1.15,1.15,0,0,0,1-.48,7.49,7.49,0,0,1,.91-.81c0,.5.08.83.09,1.15a11,11,0,0,1-.61,3.1,5.15,5.15,0,0,0,0,1.06l-1,1.22h-.27a4.2,4.2,0,0,1-.28-1c0-.43.16-.89.1-1.31a1.33,1.33,0,0,0-.5-.87,2.07,2.07,0,0,0-2.66.09c-.73.62-1.49,1.22-2.16,1.9s-.59,1.06,0,1.73a4.37,4.37,0,0,1,.53.61,3.27,3.27,0,0,0,4,1.35,14.35,14.35,0,0,0,2.78-1.43,7.81,7.81,0,0,0,.75-.53Z"/><path class="cls-1" d="M134.5,24.88c-.25.18-.49.38-.75.53A14.35,14.35,0,0,1,131,26.84a3.27,3.27,0,0,1-4-1.35h0c1.23-.09,2.46-.21,3.67-.4a5.64,5.64,0,0,0,1.56-.8h0l1-1.22a5,5,0,0,1,0-1.06,3.86,3.86,0,0,0-.26-2.12,1.22,1.22,0,0,1-.06-.26l-1.13-.58c-.26,0-.52,0-.77,0a8,8,0,0,0-5.61,2.76,11.27,11.27,0,0,0-1,1.25,3.89,3.89,0,0,0-.55,1.25,2.81,2.81,0,0,0,.6,2.39,8.07,8.07,0,0,0,3.07,2.48,2.36,2.36,0,0,0,2.41,0c1.3-.84,2.58-1.72,3.79-2.68a5.54,5.54,0,0,0,1-1.45Zm-8.09-1.73c.68-.68,1.43-1.28,2.17-1.9a2,2,0,0,1,2.06-.39,2.8,2.8,0,0,1,.6.3,1.3,1.3,0,0,1,.47.73l0,.14c.06.42-.12.88-.1,1.31a5.43,5.43,0,0,1,0,.58.54.54,0,0,1-.48.19,14.79,14.79,0,0,1-3.13-.12,4.24,4.24,0,0,1-1.69-.78Z"/><path class="cls-1" d="M145.05,21.21,144,22.7a7.47,7.47,0,0,0-2.11-1.15,6.39,6.39,0,0,0-2.34.43.69.69,0,0,0-.48.93c.14.63.27,1.25.41,1.88a23.15,23.15,0,0,1,.69,3.45c0,.41-.69.86-1.07,1.3-.24-.24-.49-.47-.72-.72a1.62,1.62,0,0,1-.21-.36.57.57,0,0,0-.16,0c-.31.17-.61.35-.91.53a5.77,5.77,0,0,1-.35-1c-.27-2-.51-4-.76-5.94a4.14,4.14,0,0,1,1.52-2.8,8.4,8.4,0,0,1,1.13.11c.15,0,.32-.12.5-.2L139,20.62l.94-.79a3.36,3.36,0,0,1,4.16-.39A2.23,2.23,0,0,1,145.05,21.21Z"/><path class="cls-1" d="M158.11,27.19c-1.17.23-1.25.06-1.65-1.07,0-.12-.09-.27-.15-.41a.78.78,0,0,0-.05-.14,4.41,4.41,0,0,1-.18-.57c0-.11,0-.21,0-.3a3.08,3.08,0,0,1,0-.53,10.34,10.34,0,0,1,.11-2l0-.25a10.62,10.62,0,0,1,.21-1.07h0l-1.08-2.52,0,0-.36-.24-.68-.47a12,12,0,0,0-.34,1.48l-.06.92a5.43,5.43,0,0,0-1.33-.69,4.13,4.13,0,0,0-3.16.05,7,7,0,0,0-3.56,4.34,3.46,3.46,0,0,0,1.95,4.48,4.57,4.57,0,0,0,.62.22,29.42,29.42,0,0,0,2.9.55c.34-.08.66-.12.95-.17a2.13,2.13,0,0,0,.76-.26l.64-.46c.38-.2.77-.4,1.15-.62a8.18,8.18,0,0,0,1.47,1.79c.23.2.38.3.72.08s.67-.4,1-.6l.84-.52Zm-4.9-1.06a19.53,19.53,0,0,1-2.37.69l-.58-.11a7.18,7.18,0,0,1-1.13-.28,2.41,2.41,0,0,1-1.53-3.1c.51-1.72,1.43-2.27,3-1.82l.31.09a5.93,5.93,0,0,1,2.61,1.85l.19.21a2.56,2.56,0,0,0,.05.27V24c0,.07,0,.14,0,.2,0,.48.07,1,.11,1.43A2,2,0,0,1,153.21,26.13Z"/><path class="cls-1" d="M106.24,27.19c-1.17.23-1.25.06-1.65-1.07,0-.12-.1-.27-.15-.41l0-.14a4.41,4.41,0,0,1-.18-.57c0-.11,0-.21,0-.3a3.08,3.08,0,0,1,0-.53,10.19,10.19,0,0,1,.1-2c0-.08,0-.16,0-.25,0-.35.12-.71.2-1.07h0l-1.07-2.52,0,0-.36-.24-.69-.47a11.73,11.73,0,0,0-.33,1.48l-.06.92a5.62,5.62,0,0,0-1.33-.69,4.13,4.13,0,0,0-3.16.05A7,7,0,0,0,94,23.8a3.46,3.46,0,0,0,2,4.48,4.57,4.57,0,0,0,.62.22c1,.29,2,.37,2.89.55.35-.08.67-.12,1-.17a2.13,2.13,0,0,0,.76-.26l.64-.46c.38-.2.77-.4,1.15-.62a8.18,8.18,0,0,0,1.47,1.79c.22.2.38.3.71.08s.68-.4,1-.6l.84-.52Zm-4.9-1.06a20.07,20.07,0,0,1-2.37.69l-.58-.11a7.18,7.18,0,0,1-1.13-.28,2.4,2.4,0,0,1-1.53-3.1c.51-1.72,1.43-2.27,3-1.82l.31.09a5.88,5.88,0,0,1,2.61,1.85l.19.21.06.27V24c0,.07,0,.14,0,.2,0,.48.07,1,.1,1.43A1.84,1.84,0,0,1,101.34,26.13Z"/><rect class="cls-2" width="162.12" height="43.33"/><path class="cls-1" d="M40.11,15Q39.06,20,38,25c-.13.6-.2,1.28-1,1.38-1.06.12-2.13,0-3.19.05-.64-.2-.25-.59-.11-.85.45-.83.91-1.65,1.38-2.47,1.36-2.42,2.74-4.84,4.09-7.26C39.38,15.5,39.51,15,40.11,15Z"/><path class="cls-3" d="M40.11,15a7.2,7.2,0,0,0-1.51,2.37c-1.72,3-3.37,6-5,9-.4.24-.84.06-1.25.11-.55-.35-.21-.75,0-1.09q1.93-3.5,3.9-7c1.2-2.15,2.42-4.3,3.62-6.44a3.17,3.17,0,0,1,.37-.58c.14-.15.31-.31.52-.2s.21.36.1.58C40.5,12.83,40.5,14,40.11,15Z"/><path class="cls-4" d="M38.38,10.71h1.38c.18.51-.16.88-.38,1.26-2.15,3.82-4.28,7.65-6.45,11.46-.44.77-.85,1.55-1.3,2.32-.15.27-.23.6-.58.71H29.86c-.42-.3-.15-.62,0-.89,1.67-3.07,3.38-6.1,5.11-9.14.89-1.56,1.75-3.14,2.64-4.71A3.05,3.05,0,0,1,38.38,10.71Z"/><path class="cls-1" d="M34,32.18a2.45,2.45,0,0,1,2.49,2.51A2.53,2.53,0,1,1,34,32.18Z"/><path class="cls-5" d="M30.11,10.71h1.38c.16.35-.08.6-.23.86C28.6,16.28,26,21,23.29,25.72c-.17.29-.29.63-.67.73s-.61,0-.91,0c-.42-.54,0-1,.2-1.41.83-1.47,1.67-2.92,2.5-4.39,1.49-2.67,3-5.34,4.48-8A8.4,8.4,0,0,1,30.11,10.71Z"/><path class="cls-6" d="M22.7,26.36l7-12.44,1.79-3.21h1c.16.34,0,.62-.18.88-1.49,2.6-2.91,5.24-4.4,7.84-1.17,2-2.35,4.05-3.4,6.15-.18.35-.32.75-.76.88C23.42,26.42,23,26.56,22.7,26.36Z"/><path class="cls-7" d="M14.93,26.54l0,.18c-.81,1.3-1.42,2.72-2.23,4-.14.22-.22.5-.47.59s-.35-.06-.2-.3c.53-1.34,1.06-2.68,1.61-4a1.6,1.6,0,0,0,.15-1A21,21,0,0,0,16,22.38c2.06-3.63,4.1-7.28,6.15-10.92a2.78,2.78,0,0,1,.56-.75h.86c.24.28.08.55-.06.79-2.77,4.9-5.47,9.85-8.3,14.71C15.12,26.34,15,26.39,14.93,26.54Z"/><path class="cls-8" d="M31.14,26.35a31.77,31.77,0,0,1,2.17-4.07c1.42-2.6,2.91-5.16,4.36-7.74.71-1.27,1.4-2.56,2.09-3.83,1.08-.05,1.29.16,1,1,0-.16.05-.38-.16-.43s-.32.19-.41.35l-2.51,4.48-5.29,9.39a1.35,1.35,0,0,0-.25.8A1.07,1.07,0,0,1,31.14,26.35Z"/><path class="cls-9" d="M38.38,10.71c-1.06,1.95-2.12,3.9-3.2,5.84-1.51,2.72-3.06,5.41-4.55,8.14a6.12,6.12,0,0,0-.87,1.66c-.28.22-.61.07-.92.11-.52-.39-.07-.73.1-1,1.42-2.61,2.91-5.19,4.36-7.78,1.15-2.07,2.32-4.14,3.49-6.2a2.94,2.94,0,0,1,.56-.75Z"/><path class="cls-10" d="M14.93,26.54l-.06-.12s0,0,.07-.05a.82.82,0,0,1,.47-.22c.18,0,.35,0,.52,0,.4,0,.53-.26.7-.53,1.05-1.71,1.86-3.55,2.82-5.3,1.63-3,3.32-5.9,5-8.85a1.92,1.92,0,0,1,.7-.74H26c.26.36,0,.66-.14.95-2.68,4.68-5.29,9.39-7.93,14.08a3.93,3.93,0,0,1-.55.66Z"/><path class="cls-11" d="M30.11,10.71A23.83,23.83,0,0,1,28,14.77c-1,1.89-2,3.75-3.07,5.61-.81,1.43-1.63,2.86-2.49,4.26a6.12,6.12,0,0,0-.75,1.72c-.29.2-.62.06-.93.1-.5-.37-.12-.74.05-1,1.62-2.83,3.19-5.69,4.8-8.53,1-1.74,2-3.48,2.94-5.23a3.56,3.56,0,0,1,.72-.95Z"/><path class="cls-12" d="M35.8,10.71h.69c.32.41,0,.77-.14,1.1-1.89,3.38-3.8,6.73-5.68,10.11-.68,1.23-1.39,2.44-2.06,3.67-.19.35-.36.73-.79.86a4,4,0,0,1-.77,0c-.25-.3,0-.54.12-.77.91-1.82,2-3.56,3-5.32,1.16-2,2.27-4.09,3.42-6.13.56-1,1.11-2,1.71-3A1.64,1.64,0,0,1,35.8,10.71Z"/><path class="cls-13" d="M23.9,26.36c1-2,2.13-4,3.22-5.92.66-1.2,1.38-2.37,2-3.6.53-1,1.13-2.07,1.72-3.09s1.13-2,1.69-3h.86c.18.45-.14.77-.33,1.1q-3.33,6-6.69,11.91l-1.13,2c-.17.3-.33.61-.7.71C24.32,26.44,24.09,26.54,23.9,26.36Z"/><path class="cls-14" d="M34.07,10.71h.86c.25.33,0,.6-.12.86-2.72,4.78-5.37,9.59-8.1,14.36a1,1,0,0,1-.44.51,3.3,3.3,0,0,1-.77,0c-.35-.38,0-.69.15-1q3-5.31,6-10.62c.63-1.13,1.26-2.25,1.9-3.37A2.69,2.69,0,0,1,34.07,10.71Z"/><path class="cls-15" d="M22.69,10.71a32.27,32.27,0,0,1-2.2,4.15c-1.67,3.05-3.41,6.07-5.12,9.1-.32.58-.63,1.16-1,1.73-.13.23-.25.55-.64.35l-.19-.7a44.21,44.21,0,0,1,2.21-4.06c1.78-3.23,3.61-6.44,5.42-9.65a3.63,3.63,0,0,1,.62-.92Z"/><path class="cls-16" d="M34.07,10.71a26.89,26.89,0,0,1-2.2,4.14c-1.66,3.06-3.41,6.07-5.12,9.1-.44.8-.86,1.6-1.3,2.4a.79.79,0,0,1-.86,0c1.72-3.05,3.45-6.1,5.16-9.16C31,15,32.17,12.87,33.38,10.71Z"/><path class="cls-17" d="M26.32,26.35c.74-1.73,1.79-3.3,2.69-5,1.46-2.68,3-5.32,4.48-8a15.2,15.2,0,0,0,1.44-2.7h.87c-1.13,2-2.26,3.93-3.37,5.91-.6,1.06-1.14,2.16-1.73,3.23-.71,1.26-1.47,2.49-2.18,3.74-.52.91-1,1.84-1.52,2.76A.52.52,0,0,1,26.32,26.35Z"/><path class="cls-18" d="M27.87,26.35c1-1.73,2-3.47,3-5.21l5.22-9.24a2.14,2.14,0,0,0,.44-1.19h.86a27,27,0,0,1-2.21,4.14c-1.66,3.06-3.4,6.07-5.11,9.1-.45.8-.87,1.6-1.3,2.4A.79.79,0,0,1,27.87,26.35Z"/><path class="cls-19" d="M29.24,10.71a52,52,0,0,1-2.48,4.58c-1.73,3.15-3.53,6.26-5.28,9.4a5.08,5.08,0,0,0-.85,1.67.7.7,0,0,1-.86,0c-.19-.21,0-.5.13-.72,1.39-2.45,2.73-4.94,4.16-7.37A1.91,1.91,0,0,0,24.73,17a1,1,0,0,1,.22-.42,2.56,2.56,0,0,0,.77-1.17c.67-1.31,1.57-2.5,2.12-3.87a1.83,1.83,0,0,1,.89-.87Z"/><path class="cls-20" d="M13.07,23.61l-.34-1.19q3-5.39,6-10.75a2.25,2.25,0,0,1,.82-1h.69c.26.34,0,.6-.16.85-1.73,3.19-3.54,6.34-5.32,9.5-.38.67-.72,1.36-1.14,2C13.51,23.3,13.45,23.62,13.07,23.61Z"/><path class="cls-21" d="M15.46,26.36h-.52c1.07-1.95,2.13-3.91,3.21-5.85,1.49-2.66,3-5.31,4.48-8a5.61,5.61,0,0,0,.93-1.82h.69c.18.48-.15.83-.35,1.18-1.64,2.89-3.24,5.79-4.87,8.68l-2.82,5A1.56,1.56,0,0,1,15.46,26.36Z"/><path class="cls-22" d="M21.83,10.71A14.24,14.24,0,0,1,20.17,14c-1.46,2.71-3,5.39-4.53,8.06a15.21,15.21,0,0,1-2.06,3.32,1.65,1.65,0,0,1-.22-.84c1.55-2.9,3.2-5.75,4.8-8.62.83-1.47,1.65-2.94,2.49-4.41a1.76,1.76,0,0,1,.67-.76Z"/><path class="cls-23" d="M17.35,26.4c.88-2,2.12-3.89,3.19-5.83,1.69-3.07,3.44-6.1,5.16-9.15a5.48,5.48,0,0,0,.27-.71h.69c.16.3,0,.56-.16.8-1.7,2.92-3.31,5.89-5,8.81-.94,1.63-1.87,3.29-2.74,5a2.36,2.36,0,0,1-.9,1.12Z"/><path class="cls-24" d="M19.59,10.71Q16.41,16.37,13.24,22a.64.64,0,0,1-.51.4l-.19-.7a2.31,2.31,0,0,1,.36-1c1.71-3.07,3.46-6.12,5.17-9.19a2.77,2.77,0,0,1,.66-.78Z"/><path class="cls-25" d="M18.73,10.71c-.93,1.69-1.85,3.39-2.8,5.07-1.12,2-2.26,4-3.39,5.94a2.93,2.93,0,0,1-.35-1.2c.64-1.24,1.38-2.42,2-3.65,1-1.75,2-3.47,2.91-5.23a3,3,0,0,1,.73-.93Z"/><path class="cls-26" d="M12,19.69l-.27-.89a47.25,47.25,0,0,1,2.62-4.92c.4-.73.79-1.47,1.2-2.18a3.7,3.7,0,0,1,.8-1h.87c.23.29,0,.54-.11.78q-2.13,3.81-4.28,7.62C12.62,19.42,12.44,19.8,12,19.69Z"/><path class="cls-27" d="M15.46,26.36c1.13-2,2.28-3.95,3.39-5.93,1.81-3.24,3.6-6.48,5.4-9.72h.51c0,.62-.43,1-.69,1.51-1.7,3-3.43,6.06-5.11,9.1-.81,1.47-1.58,3-2.41,4.43a1.3,1.3,0,0,1-.57.61Z"/><path class="cls-28" d="M24.24,18.29l-4,7.27c-.12.22-.38.46-.27.69s.46.09.71.11H33.56l3.44.06a1,1,0,0,1-.67.11l-16.27,0c-.23,0-.46-.05-.68-.07a.18.18,0,0,1-.19-.12,11.82,11.82,0,0,1,1.35-2.65c1.05-1.9,2.13-3.77,3.17-5.67.14-.25.26-.52.56-.61a.29.29,0,0,1,.23.1C24.67,17.83,24.39,18,24.24,18.29Z"/><path class="cls-29" d="M12,19.69c.65-.29.77-1,1.07-1.51,1.41-2.47,2.77-5,4.15-7.47h.69c-.73,1.66-1.75,3.17-2.61,4.76-.66,1.22-1.36,2.42-2,3.64a3.89,3.89,0,0,1-1.06,1.41A1.84,1.84,0,0,1,12,19.69Z"/><path class="cls-30" d="M21.32,10.71q-3.06,5.41-6.1,10.85c-.41.72-.81,1.45-1.2,2.18a1.45,1.45,0,0,1-.66.76l-.13-.37a6.57,6.57,0,0,1,1.12-2.3c1.91-3.42,3.84-6.84,5.76-10.26a2.15,2.15,0,0,1,.69-.86Z"/><path class="cls-31" d="M16.31,10.71c-1.13,2-2.25,4-3.39,6.06a6.21,6.21,0,0,1-1.23,2l-.35-1.2c1.18-2,2.31-4,3.43-6a3,3,0,0,1,.68-.86Z"/><path class="cls-32" d="M20.8,10.71Q17,17.42,13.23,24.13l-.16-.52c1.66-2.92,3.33-5.85,5-8.78.77-1.36,1.49-2.75,2.24-4.12Z"/><path class="cls-33" d="M16,26.36q3.39-6,6.8-12.06c.67-1.19,1.32-2.39,2-3.59h.35c-2,3.51-4,7-5.91,10.54-.81,1.53-1.6,3.08-2.44,4.6C16.58,26.17,16.4,26.44,16,26.36Z"/><path class="cls-34" d="M15.45,10.71C14.35,13,13,15.14,11.77,17.35a.5.5,0,0,1-.43.25l-.22-.85a46.67,46.67,0,0,1,2.39-4.33c.32-.59.46-1.31,1.08-1.71Z"/><path class="cls-35" d="M17.86,26.4q3.77-6.67,7.53-13.35c.44-.78.85-1.56,1.27-2.34H27c.29.82-.45,1.26-.71,1.88a1.88,1.88,0,0,0-.49.78c-.07.15-.15.29-.23.43-1.57,2.58-3,5.25-4.49,7.87-.82,1.44-1.61,2.89-2.43,4.33a.88.88,0,0,1-.41.42l-.24,0-.07,0Z"/><path class="cls-36" d="M13,10.71h1c.16.34-.05.6-.2.86-.72,1.23-1.38,2.49-2.1,3.71-.2.34-.37.81-.94.6l-.35-1.2c.74-1,1.15-2.14,1.84-3.15A2.44,2.44,0,0,1,13,10.71Z"/><path class="cls-37" d="M26.14,12.61c.11-.72.79-1.17.86-1.9h.69c.24.64-.28,1.06-.53,1.51-.62,1.14-1.26,2.27-1.89,3.4S23.76,18,23.13,19.21a1.93,1.93,0,0,1-.51.77.42.42,0,0,1-.49,0,6.45,6.45,0,0,1,1.12-2.33c.7-1.36,1.55-2.64,2.2-4l.17-.34C25.87,13.12,26,12.82,26.14,12.61Z"/><path class="cls-38" d="M7.69,8.34c-.55.13-1.19-.08-1.65.49-.21.26-.59.16-.86,0a.83.83,0,0,1,.39-1.52c.82,0,1.65,0,2.47,0C8.33,7.77,7.94,8,7.69,8.34Z"/><path class="cls-39" d="M10.84,15.88c.81-.19.86-1,1.2-1.55.74-1.17,1.36-2.41,2-3.62h.51a32.77,32.77,0,0,1-2.66,4.82c-.28.4-.15,1.08-.81,1.22A2.07,2.07,0,0,1,10.84,15.88Z"/><path class="cls-40" d="M13,32.21a1.18,1.18,0,0,1,.86.18,1,1,0,0,1-.19,1c-.57.92-1,1.92-1.65,2.81-.17.24-.31.59-.73.35a.66.66,0,0,1-.39-.49A12.31,12.31,0,0,1,13,32.21Z"/><path class="cls-41" d="M12,31c.24,0,.24,0,.29-.09.72-1.25,1.43-2.51,2.15-3.77.11-.19.18-.43.46-.45l-1.78,4.42c-.26.66-.9.44-1.4.72A1.05,1.05,0,0,1,12,31Z"/><path class="cls-42" d="M11.33,36.52c.75-.31.95-1.1,1.27-1.68a15.12,15.12,0,0,0,1.3-2.45.86.86,0,0,1,.69.35.38.38,0,0,1,0,.4c-.73,1.18-1.35,2.42-2.07,3.6a1,1,0,0,1-.3.3A1.28,1.28,0,0,1,11.33,36.52Z"/><path class="cls-43" d="M28.38,32.76h3c-.08.87-.54,1.16-1.38,1.07s-1.43,0-2.14,0C27.59,33.22,28,33,28.38,32.76Z"/><path class="cls-44" d="M13,32.21A26.24,26.24,0,0,1,10.94,36a1,1,0,0,1-.33-.83A4.72,4.72,0,0,1,12,32.41,1.52,1.52,0,0,1,13,32.21Z"/><path class="cls-45" d="M13,10.71c-.65,1.18-1.29,2.37-2,3.54-.11.18-.15.61-.58.43L10.3,14a8.42,8.42,0,0,1,1.88-3.28Z"/><path class="cls-46" d="M12.18,37a25.87,25.87,0,0,1,2.41-4.3.57.57,0,0,1,.35.33c.31.66-.24,1.1-.5,1.55-.51.89-.78,2-1.74,2.57A.74.74,0,0,1,12.18,37Z"/><path class="cls-47" d="M12.18,10.7A29.58,29.58,0,0,1,10.3,14a3,3,0,0,1-.34-1.2,6.23,6.23,0,0,1,1.18-2.08Z"/><path class="cls-48" d="M12.7,37.19a27.8,27.8,0,0,0,2.24-4.12.65.65,0,0,1,.34.53c.19.54-.16.93-.41,1.32a10.55,10.55,0,0,1-1.48,2.27Z"/><path class="cls-49" d="M7.69,8.34l.35-1c1.36-.08,1.42,0,1.71,1-.15.41-.22.9-.84.85A1,1,0,0,0,7.69,8.34Z"/><path class="cls-48" d="M25.11,15.53l2.58-4.82h.52a9.39,9.39,0,0,1-1.34,2.8c-.23.42-.5.83-.71,1.26-.42.29-.48.84-.86,1.15a.22.22,0,0,1-.19-.39Z"/><path class="cls-50" d="M28.38,32.76a2.1,2.1,0,0,0-.51,1H25.8c-.32-.48-.08-.78.34-1Z"/><path class="cls-51" d="M18,26.39l.22,0a32,32,0,0,0,2.43-4.06,5.91,5.91,0,0,1,.57-.84.41.41,0,0,1,.47-.08c0,.94-.75,1.55-1.1,2.34a16.78,16.78,0,0,0-1.34,2.64l.13.07A8.5,8.5,0,0,1,18,26.39Z"/><path class="cls-52" d="M18.38,33.78H16.49c-.27-.47,0-.74.34-1h1.9C19.05,33.25,18.75,33.53,18.38,33.78Z"/><path class="cls-28" d="M26,14.67l2.24-4h.52c-.68.69-.82,1.72-1.43,2.44s-.69,1.79-1.5,2.38l-.08-.09A1.21,1.21,0,0,1,26,14.67Z"/><path class="cls-53" d="M23.9,33.78H22.18c-.27-.47,0-.74.34-1h1.89A1,1,0,0,1,23.9,33.78Z"/><path class="cls-54" d="M23.9,33.78l.51-1h1.73a1.89,1.89,0,0,0-.34,1Z"/><path class="cls-55" d="M10.14,9.67c.1.32,0,.78.49,1,0,.68-.16,1.18-.93,1.25l-.44-1.58C9.47,10,9.58,9.57,10.14,9.67Z"/><path class="cls-56" d="M13.39,37.19c.41-1.32,1.47-2.29,1.89-3.59a.54.54,0,0,1,.18.51A4.35,4.35,0,0,1,13.9,37,.7.7,0,0,1,13.39,37.19Z"/><path class="cls-57" d="M13.9,37a24.9,24.9,0,0,1,1.42-2.38.83.83,0,0,0,.14-.55A2.35,2.35,0,0,1,13.9,37Z"/><path class="cls-58" d="M22.52,32.76l-.34,1H20.62c-.14-.5.13-.79.52-1Z"/><path class="cls-59" d="M10.14,9.67c-.4.1-.45.64-.88.7C9.14,10,9,9.58,8.91,9.16c.42-.15.47-.66.84-.85Z"/><path class="cls-60" d="M12,32.41,10.61,35.2A2.27,2.27,0,0,1,12,32.41Z"/><path class="cls-6" d="M18.38,33.78a2.08,2.08,0,0,0,.35-1h1.38c.27.57-.26.73-.52,1Z"/><path class="cls-61" d="M9.7,12a2.75,2.75,0,0,0,.93-1.25h.51A4.65,4.65,0,0,1,10,12.78Z"/><path class="cls-13" d="M19.59,33.78c0-.44.53-.59.52-1h1l-.52,1Z"/><path class="cls-62" d="M16.83,32.76l-.34,1c-.76.13-.57-.63-1.11-1Z"/><path class="cls-28" d="M25.11,15.88h.17c.16-.14.19-.46.52-.35h0a1.33,1.33,0,0,1-.69,1.21.53.53,0,0,1-.18-.5A.5.5,0,0,1,25.11,15.88Z"/><path class="cls-28" d="M24.24,18.29l.18-.86c.07-.26.19-.46.51-.35A1.3,1.3,0,0,1,24.24,18.29Z"/><path class="cls-28" d="M24.93,17.08l-.51.35h0a1,1,0,0,1,.69-1.21v.52A.37.37,0,0,0,24.93,17.08Z"/><path class="cls-48" d="M25.11,16.22a1.85,1.85,0,0,0-.69,1.21A10,10,0,0,0,23,19.75c-1.28,2.18-2.51,4.4-3.76,6.61-.21-.43.08-.71.27-1,.71-1.31,1.56-2.55,2.14-3.93-.14-.27,0-.45.17-.65s.46-.6.69-.9A17,17,0,0,0,24,17.32l1.08-1.79v.69Z"/><path class="cls-35" d="M21.31,21.56c-.47.85-1,1.69-1.46,2.54s-.67,1.81-1.63,2.26Q21.6,20.3,25,14.25a4.43,4.43,0,0,1,.46-.61A3.09,3.09,0,0,1,25,15,53.74,53.74,0,0,0,22.18,20c.1.17,0,.29-.09.43A12.44,12.44,0,0,0,21.31,21.56Z"/><path class="cls-35" d="M26.14,12.61c0,.37-.08.66-.52.69C25.68,13,25.74,12.67,26.14,12.61Z"/><path class="cls-51" d="M22,20.35l.18-.34.34-.17a1.88,1.88,0,0,1-.52,1A.38.38,0,0,1,22,20.35Z"/><path class="cls-28" d="M25.8,15.53l-.52.35A1.9,1.9,0,0,1,26,14.67Z"/><path class="cls-37" d="M22,20.35v.52l-.34.52-.35.17A1.94,1.94,0,0,1,22,20.35Z"/></g></g></svg>