<svg xmlns="http://www.w3.org/2000/svg" viewBox="0 0 113.49 43.33"><defs><style>.cls-1{fill:none;}</style></defs><g id="Calque_2" data-name="Calque 2"><g id="Calque_1-2" data-name="Calque 1"><rect class="cls-1" width="113.49" height="43.33"/><path d="M15.53,20.54A8,8,0,0,1,9,28.14,4.42,4.42,0,0,1,4.46,26,8.75,8.75,0,0,1,5.38,15.5,5.91,5.91,0,0,1,10,13.17a5,5,0,0,1,4.78,3.08,4,4,0,0,1,.16.57C15.14,18.13,15.35,19.43,15.53,20.54Zm-9.24-.73-.1,0a18.72,18.72,0,0,0,.54,3.11c1,2.84,2,2.84,4.37,2a2.29,2.29,0,0,0,1.62-1.76,8.49,8.49,0,0,0-1.48-6.93,1.62,1.62,0,0,0-.67-.55,3.13,3.13,0,0,0-4.22,2.82A10.63,10.63,0,0,1,6.29,19.81Zm7.61,3.34a8.06,8.06,0,0,1-4.52,3.5A4.19,4.19,0,0,0,13.9,23.15ZM8.14,14.67a3.33,3.33,0,0,0-2.86,2.25Z"/><path d="M25.43,22l-1.05,1.49a7,7,0,0,0-2.11-1.15,6.19,6.19,0,0,0-2.34.43.69.69,0,0,0-.49.93c.15.62.28,1.25.42,1.87A23.15,23.15,0,0,1,20.55,29c0,.41-.69.87-1.07,1.3-.24-.24-.49-.46-.72-.71a1.68,1.68,0,0,1-.21-.37,1.23,1.23,0,0,0-.16,0l-.91.52a5.25,5.25,0,0,1-.35-1c-.27-2-.51-4-.76-5.94A4.08,4.08,0,0,1,17.89,20a7,7,0,0,1,1.13.11c.15,0,.31-.12.5-.2l-.13,1.43c.39-.32.66-.56.94-.78a3.36,3.36,0,0,1,4.16-.4A2.23,2.23,0,0,1,25.43,22Z"/><path d="M27.08,29.11c-.09-2.31-.2-4.72-.29-7.13a1.93,1.93,0,0,1,.88-1.63l.76-.55.79.25q.11,2.89.24,5.82a3.94,3.94,0,0,0,.16,1,1.64,1.64,0,0,1-.44,1.93A1.75,1.75,0,0,1,27.08,29.11Z"/><path d="M27.1,20c0-1.39-.2-2.56.45-3.63a2.65,2.65,0,0,1,.37-.55c.29-.27.5-.72,1.08-.46a.93.93,0,0,1,.47,1.3A19.91,19.91,0,0,1,28,19.28C27.82,19.52,27.5,19.66,27.1,20Z"/><path d="M73.79,27.05c-.07-.68-.06-1.38-.13-2.06-.13-1.37-.23-2.75-.48-4.1-.16-.89-.58-1.12-1.48-1.1A5.76,5.76,0,0,0,68.44,21l-.79.59c0-.1,0-.21-.05-.32s0-.28-.07-.42a1.41,1.41,0,0,0-.32-.76.93.93,0,0,0-.58-.3,2.12,2.12,0,0,0-.58,0,4.07,4.07,0,0,0-.62.06A6.2,6.2,0,0,0,62.79,21l-.84.63V19.94l-1,.46c0-.5,0-.95-.06-1.43a2,2,0,0,0-1.48,2c0,2.26,0,4.52,0,6.79a13.66,13.66,0,0,0,.26,1.72l1.09-.85.44.94c1.14-.35,1.44-1,1.18-2a17.39,17.39,0,0,1-.53-3.12c-.13-1.71-.08-1.72,1.5-2.37.78-.32,1.26-.3,1.67.18a2.81,2.81,0,0,1,.34.51A6,6,0,0,1,66,27.27c-.15.53-.3,1.06-.42,1.46L66,29l.48-.37.24.51a6.11,6.11,0,0,1,.92-.79,1.07,1.07,0,0,0,.48-.68s0-.05,0-.08a17.39,17.39,0,0,1-.53-3.12c-.08-1-.09-1.39.2-1.7a4.11,4.11,0,0,1,1.3-.67c1-.41,1.51-.27,2,.69a6,6,0,0,1,.56,4.51c-.15.53-.3,1.06-.42,1.46l1,.55a9.21,9.21,0,0,1,1.1-1A1.14,1.14,0,0,0,73.79,27.05Z"/><path d="M43.59,25.07a5.8,5.8,0,0,1-1,1.45c-1.22,1-2.5,1.84-3.79,2.68a2.36,2.36,0,0,1-2.41,0,8.18,8.18,0,0,1-3.08-2.48,2.89,2.89,0,0,1,0-3.64,8.27,8.27,0,0,1,7.36-4,1.15,1.15,0,0,0,1.06-.48,7.26,7.26,0,0,1,.9-.81c0,.5.08.83.1,1.15a10.68,10.68,0,0,1-.62,3.1,5.15,5.15,0,0,0,0,1.06l-1,1.22h-.27a3.75,3.75,0,0,1-.28-1c0-.43.15-.89.1-1.31a1.3,1.3,0,0,0-.51-.87,2.07,2.07,0,0,0-2.66.09c-.73.62-1.49,1.22-2.16,1.9s-.58,1.06,0,1.73a4.37,4.37,0,0,1,.53.61,3.28,3.28,0,0,0,4,1.35,14.64,14.64,0,0,0,2.78-1.43,7.67,7.67,0,0,0,.74-.53Z"/><path d="M85.86,24.88a7.81,7.81,0,0,1-.75.53,14.27,14.27,0,0,1-2.77,1.43,3.28,3.28,0,0,1-4-1.35h0c1.23-.09,2.46-.21,3.68-.4a5.45,5.45,0,0,0,1.55-.8h0l1-1.22a5.15,5.15,0,0,1,0-1.06,3.86,3.86,0,0,0-.26-2.12,2.38,2.38,0,0,1,0-.26l-1.13-.58c-.27,0-.52,0-.78,0a8,8,0,0,0-5.61,2.76,11.21,11.21,0,0,0-1,1.25,3.68,3.68,0,0,0-.55,1.25,2.81,2.81,0,0,0,.59,2.39,8.18,8.18,0,0,0,3.08,2.48,2.36,2.36,0,0,0,2.41,0c1.29-.84,2.57-1.72,3.78-2.68a5.57,5.57,0,0,0,1-1.45Zm-8.08-1.73c.67-.68,1.43-1.28,2.16-1.9A2,2,0,0,1,82,20.86a2.8,2.8,0,0,1,.6.3,1.25,1.25,0,0,1,.47.73.58.58,0,0,1,0,.14c.06.42-.11.88-.09,1.31a3.7,3.7,0,0,1,0,.58.53.53,0,0,1-.48.19A14.69,14.69,0,0,1,79.42,24a4.18,4.18,0,0,1-1.69-.78Z"/><path d="M96.41,21.21l-1,1.49a7.61,7.61,0,0,0-2.11-1.15,6.35,6.35,0,0,0-2.34.43.69.69,0,0,0-.49.93c.14.63.28,1.25.41,1.88a22,22,0,0,1,.69,3.45c0,.41-.68.86-1.06,1.3-.25-.24-.5-.47-.73-.72a1.58,1.58,0,0,1-.2-.36.58.58,0,0,0-.17,0l-.91.53a5.77,5.77,0,0,1-.35-1c-.27-2-.51-4-.76-5.94a4.11,4.11,0,0,1,1.53-2.8,8.4,8.4,0,0,1,1.13.11c.15,0,.31-.12.49-.2l-.12,1.44.94-.79a3.36,3.36,0,0,1,4.16-.39A2.19,2.19,0,0,1,96.41,21.21Z"/><path d="M109.47,27.19c-1.16.23-1.24.06-1.64-1.07,0-.12-.1-.27-.15-.41l-.05-.14a4.41,4.41,0,0,1-.18-.57c0-.11,0-.21,0-.3a4.25,4.25,0,0,1,0-.53,10.34,10.34,0,0,1,.11-2l0-.25c.05-.35.13-.71.21-1.07h0l-1.07-2.52,0,0-.36-.24-.69-.47a10.2,10.2,0,0,0-.33,1.48c0,.31,0,.62-.06.92a5.62,5.62,0,0,0-1.33-.69,4.13,4.13,0,0,0-3.16.05,7,7,0,0,0-3.57,4.34,3.47,3.47,0,0,0,2,4.48,4.57,4.57,0,0,0,.62.22c1,.29,2,.37,2.89.55.34-.08.67-.12,1-.17a2.19,2.19,0,0,0,.77-.26c.21-.15.43-.3.63-.46.39-.2.77-.4,1.15-.62a8.5,8.5,0,0,0,1.48,1.79c.22.2.37.3.71.08s.67-.4,1-.6l.84-.52Zm-4.89-1.06a19.67,19.67,0,0,1-2.38.69l-.57-.11a6.67,6.67,0,0,1-1.13-.28A2.4,2.4,0,0,1,99,23.33c.51-1.72,1.43-2.27,3-1.82l.31.09a5.93,5.93,0,0,1,2.61,1.85l.19.21.06.27V24c0,.07,0,.14,0,.2,0,.48.07,1,.1,1.43A1.84,1.84,0,0,1,104.58,26.13Z"/><path d="M57.6,27.19c-1.16.23-1.24.06-1.65-1.07,0-.12-.09-.27-.15-.41s0-.09,0-.14a3.07,3.07,0,0,1-.19-.57c0-.11,0-.21,0-.3a3.08,3.08,0,0,1,0-.53,10.34,10.34,0,0,1,.11-2l0-.25a10.62,10.62,0,0,1,.21-1.07h0l-1.08-2.52,0,0-.36-.24-.68-.47a12,12,0,0,0-.34,1.48c0,.31,0,.62,0,.92A5.49,5.49,0,0,0,52,19.41a4.13,4.13,0,0,0-3.16.05,7,7,0,0,0-3.56,4.34,3.46,3.46,0,0,0,2,4.48,4.7,4.7,0,0,0,.63.22,29.23,29.23,0,0,0,2.89.55c.34-.08.66-.12,1-.17a2.13,2.13,0,0,0,.76-.26l.64-.46c.39-.2.77-.4,1.15-.62a8.48,8.48,0,0,0,1.47,1.79c.23.2.38.3.72.08s.67-.4,1-.6l.83-.52Zm-4.9-1.06a19.53,19.53,0,0,1-2.37.69l-.58-.11a7.18,7.18,0,0,1-1.13-.28,2.4,2.4,0,0,1-1.52-3.1c.5-1.72,1.43-2.27,3-1.82l.31.09a5.93,5.93,0,0,1,2.61,1.85l.19.21.06.27V24c0,.07,0,.14,0,.2,0,.48.07,1,.11,1.43A1.88,1.88,0,0,1,52.7,26.13Z"/></g></g></svg>